<?xml version="1.0" encoding="UTF-8"?>
<!-- Created with Inkscape (http://www.inkscape.org/) -->
<svg width="128mm" height="128mm" version="1.1" viewBox="0 0 128 128" xml:space="preserve" xmlns="http://www.w3.org/2000/svg" xmlns:ns1="https://launchpad.net/jessyink" xmlns:xlink="http://www.w3.org/1999/xlink">
    <defs>
        <linearGradient id="linearGradient15468">
            <stop stop-color="#df0b0b" offset="0"/>
            <stop stop-color="#870607" stop-opacity="0" offset="1"/>
        </linearGradient>
        <linearGradient id="linearGradient15460">
            <stop stop-color="#f4191a" offset="0"/>
            <stop stop-color="#3f0202" offset=".43144"/>
        </linearGradient>
        <linearGradient id="linearGradient15462" x1="160.91" x2="162.08" y1="20.456" y2="24.897" gradientTransform="translate(-23.882 -3.9108)" gradientUnits="userSpaceOnUse" xlink:href="#linearGradient15460"/>
        <linearGradient id="linearGradient15470" x1="160.81" x2="160.99" y1="20.754" y2="24.358" gradientTransform="translate(-23.882 -3.9108)" gradientUnits="userSpaceOnUse" xlink:href="#linearGradient15468"/>
        <linearGradient id="linearGradient15478" x1="55.827" x2="52.52" y1="41.209" y2="62.64" gradientTransform="matrix(1 0 0 .94444 0 2.1755)" gradientUnits="userSpaceOnUse">
            <stop stop-color="#533a3e" offset="0"/>
            <stop offset="1"/>
        </linearGradient>
        <linearGradient id="linearGradient17653" x1="160.65" x2="160.67" y1="21.016" y2="24.953" gradientTransform="translate(-36.926 -1.5802)" gradientUnits="userSpaceOnUse" xlink:href="#linearGradient15460"/>
        <linearGradient id="linearGradient17655" x1="160.81" x2="160.99" y1="21.315" y2="24.358" gradientTransform="translate(-36.926 -1.5802)" gradientUnits="userSpaceOnUse" xlink:href="#linearGradient15468"/>
        <linearGradient id="linearGradient18488" x1="53.84" x2="57.517" y1="23.136" y2="37.82" gradientTransform="translate(1.9844 5.1594)" gradientUnits="userSpaceOnUse">
            <stop stop-color="#4b363a" offset="0"/>
            <stop stop-opacity=".40925" offset="1"/>
        </linearGradient>
        <linearGradient id="linearGradient18496" x1="56.001" x2="44.277" y1="21.948" y2="51.449" gradientTransform="translate(1.9844 5.1594)" gradientUnits="userSpaceOnUse">
            <stop stop-color="#312623" offset="0"/>
            <stop offset="1"/>
        </linearGradient>
        <linearGradient id="linearGradient18504" x1="32.741" x2="39.195" y1="42.001" y2="50.795" gradientUnits="userSpaceOnUse">
            <stop stop-color="#745952" offset="0"/>
            <stop stop-color="#362b27" offset="1"/>
        </linearGradient>
        <linearGradient id="linearGradient18512" x1="27.599" x2="36.68" y1="47.246" y2="58.097" gradientUnits="userSpaceOnUse">
            <stop stop-color="#b5999a" offset="0"/>
            <stop stop-color="#6c4e51" offset="1"/>
        </linearGradient>
        <linearGradient id="linearGradient18525" x1="40.19" x2="45.161" y1="52.944" y2="58.37" gradientUnits="userSpaceOnUse">
            <stop stop-color="#745952" offset="0"/>
            <stop stop-color="#433632" offset="1"/>
        </linearGradient>
        <linearGradient id="linearGradient18533" x1="16.464" x2="25.927" y1="49.453" y2="62.497" gradientUnits="userSpaceOnUse">
            <stop stop-color="#533a3e" offset="0"/>
            <stop offset="1"/>
        </linearGradient>
        <linearGradient id="linearGradient18541" x1="10.213" x2="26.587" y1="49.712" y2="63.183" gradientUnits="userSpaceOnUse">
            <stop stop-color="#322622" offset="0"/>
            <stop stop-color="#362724" offset="1"/>
        </linearGradient>
        <linearGradient id="linearGradient1347" x1="162.77" x2="160.31" y1="18.265" y2="24.953" gradientTransform="translate(-23.265 -4.7454)" gradientUnits="userSpaceOnUse" xlink:href="#linearGradient15460"/>
        <linearGradient id="linearGradient1349" x1="160.75" x2="160.99" y1="20.923" y2="24.358" gradientTransform="translate(-23.265 -4.7454)" gradientUnits="userSpaceOnUse" xlink:href="#linearGradient15468"/>
        <radialGradient id="radialGradient3683" cx="167.52" cy="-29.836" r="9.2571" gradientTransform="matrix(.56367 0 0 .51262 -231.44 33.166)" gradientUnits="userSpaceOnUse">
            <stop stop-color="#d50000" offset="0"/>
            <stop stop-color="#e00" stop-opacity="0" offset="1"/>
        </radialGradient>
        <radialGradient id="radialGradient3691" cx="-137.61" cy="17.876" r="4.0672" gradientTransform="matrix(1.1886 0 0 1.1423 25.851 -3.4978)" gradientUnits="userSpaceOnUse">
            <stop stop-color="#e00" offset="0"/>
            <stop stop-color="#e00" stop-opacity="0" offset="1"/>
        </radialGradient>
        <radialGradient id="radialGradient3703" cx="-130.09" cy="14.621" r="3.6543" gradientTransform="matrix(1.1471 -.063543 .033561 .91861 272.66 -.2765)" gradientUnits="userSpaceOnUse">
            <stop stop-color="#e00" offset="0"/>
            <stop stop-color="#e00" stop-opacity="0" offset="1"/>
        </radialGradient>
        <linearGradient id="linearGradient5175" x1="32.748" x2="30.473" y1="59.96" y2="3.3395" gradientUnits="userSpaceOnUse">
            <stop offset="0"/>
            <stop stop-color="#2d0404" offset="1"/>
        </linearGradient>
    </defs>
    <g transform="matrix(1.9965 0 0 1.9842 .086371 .16591)">
        <g>
            <rect x=".027181" y="-.057215" width="64.093" height="64.473" fill="#100f22"/>
            <rect x=".92604" y=".79375" width="62.442" height="62.574" fill="#f4edd6" stroke-width=".17936"/>
            <rect x="1.3539" y="1.1372" width="61.571" height="61.819" fill="url(#linearGradient5175)" stroke="#b52a2f" stroke-width=".18261"/>
        </g>
        <path d="m30.603 1.2136 3.1346 0.022798 0.07028 1.9683-3.2212 0.011786z" fill="#100205"/>
        <g transform="matrix(.99892 0 0 1 217.78 52.141)">
            <path d="m-48.239-12.522-25.373 20.496-23.466-20.493 23.351 22.315z" display="none" stroke="#000" stroke-width="2.1326"/>
            <path d="m-98.267-35.851c0.94917 0.8298 46.994 0.50137 47.021-0.45534-0.10952-1.9941 0.4055-4.821-1.9016-5.0372l-41.632-0.09287c-1.198-0.32863-3.6954 0.79942-3.4876 5.5854z" display="none" stroke="#000" stroke-width=".62388"/>
            <g transform="matrix(2.276 0 0 2.3539 -479.36 -73.634)">
                <path transform="scale(-1,1)" d="m-131.79 17.05a5.2849 7.1697 0 0 1-3.7751 5.3195 5.2849 7.1697 0 0 1-5.2346-2.0234 5.2849 7.1697 0 0 1-1.1416-7.22l5.0003 2.321z" fill="url(#radialGradient3683)"/>
                <path transform="matrix(-.43936 0 0 .42483 210.61 31.282)" d="m176.77-31.033a9.3758 10.446 0 0 1-6.6974 7.7502 9.3758 10.446 0 0 1-9.2867-2.948 9.3758 10.446 0 0 1-2.0253-10.519l8.8709 3.3815z" fill="#e00" fill-opacity=".19259"/>
                <g>
                    <g stroke="#000">
                        <ellipse cx="136.99" cy="17.509" rx="3.5639" ry="3.7397" fill="url(#linearGradient15462)" stroke-width=".35647"/>
                        <ellipse cx="137.01" cy="17.673" rx="3.0076" ry="3.1365" stroke-width=".2999"/>
                        <path d="m136.49 15.211 0.13623 5.1606 0.68148-0.04607v-5.0684z" fill="url(#linearGradient15470)" stroke-width=".44927"/>
                    </g>
                    <path d="m132.01 18.034c10.52-2.7539 10.346-2.7539 10.346-2.7539l-8.0792-4.5523z" fill="#2a0303"/>
                    <path transform="matrix(.43936 0 0 .42483 114.86 9.1312)" d="m59.284 15.482-18.218 5.0046c-0.39363-0.66098-0.62948-1.3351-0.28063-2.058 0.90263-0.54476 1.2333-0.74115 2.1983-0.72497l-0.11693 0.81851c-0.60273-0.20733-0.85421 0.05537-1.333 0.46772l0.09354 0.46772c6.4794-1.0353 11.787-3.2429 17.68-4.8643z"/>
                </g>
            </g>
            <g transform="matrix(2.1851 0 0 2.3561 -455.75 -88.35)">
                <path d="m128.11 18.366a4.1918 6.3851 0 0 1-2.1482 5.6052 4.1918 6.3851 0 0 1-4.2597-0.15522 4.1918 6.3851 0 0 1-1.9698-5.7552l4.186 0.3355z" fill="url(#radialGradient3703)"/>
                <path transform="matrix(1.0416 0 0 .99908 259.45 7.2005)" d="m-126.44 12.53a3.6543 4.371 0 0 1-1.8728 3.8371 3.6543 4.371 0 0 1-3.7136-0.10626 3.6543 4.371 0 0 1-1.7172-3.9398l3.6493 0.22967z" fill="#e00" fill-opacity=".19259"/>
                <g>
                    <g stroke="#000">
                        <ellipse cx="123.95" cy="19.84" rx="3.5639" ry="3.7397" fill="url(#linearGradient17653)" stroke-width=".35647"/>
                        <ellipse cx="123.97" cy="20.003" rx="3.0076" ry="3.1365" stroke-width=".2999"/>
                        <path d="m123.45 17.542 0.13623 5.1606 0.68148-0.04607v-5.0684z" fill="url(#linearGradient17655)" stroke-width=".44927"/>
                    </g>
                    <path d="m118.04 19.404c1.9944 0.53795 9.4985 0.72484 11.443-0.28703-1.569-1.5288-2.7839-3.2501-5.5731-3.1329-2.2049 0.07774-4.3498 1.3307-5.8697 3.42z" fill="#2a0303"/>
                    <path d="m119.77 19.688c2.3664 0.26107 5.3806 0.33167 8.2518-0.07941l-7e-3 -0.40877c-2.6059 0.40101-5.5316 0.34122-8.2459 0.10919z"/>
                </g>
            </g>
            <g transform="matrix(-2.276 0 0 2.3539 109.29 -71.853)">
                <path transform="matrix(-1 0 0 1 -4.5766e-6 5.0448e-8)" d="m-133.55 17.368a4.1193 4.4378 0 0 1-2.9426 3.2925 4.1193 4.4378 0 0 1-4.0802-1.2524 4.1193 4.4378 0 0 1-0.88983-4.4689l3.8975 1.4366z" fill="#e00" fill-opacity=".19259"/>
                <g>
                    <path transform="scale(-1,1)" d="m-132.89 16.118a4.8964 7.0196 0 0 1-3.4977 5.2081 4.8964 7.0196 0 0 1-4.8499-1.9811 4.8964 7.0196 0 0 1-1.0577-7.0689l4.6328 2.2724z" fill="url(#radialGradient3691)"/>
                    <g stroke="#000">
                        <ellipse cx="137.61" cy="16.674" rx="3.5639" ry="3.7397" fill="url(#linearGradient1347)" stroke-width=".35647"/>
                        <ellipse cx="137.63" cy="16.838" rx="3.0076" ry="3.1365" stroke-width=".2999"/>
                        <path d="m137.11 14.377 0.13623 5.1606 0.68148-0.04607v-5.0684z" fill="url(#linearGradient1349)" stroke-width=".44927"/>
                    </g>
                    <path d="m132.63 17.2c10.52-2.7539 10.346-2.7539 10.346-2.7539l-8.0792-4.5523z" fill="#2a0303"/>
                    <path d="m141.54 14.872-8.0041 2.1261c-0.17294-0.28081-0.27656-0.5672-0.12329-0.87429 0.39657-0.23143 0.54187-0.31486 0.96583-0.30799l-0.0514 0.34773c-0.26482-0.08808-0.37531 0.02352-0.58567 0.1987l0.0411 0.1987c2.8468-0.43984 5.1785-1.3777 7.7678-2.0665z"/>
                </g>
            </g>
            <g transform="matrix(1.0614 0 0 1 -189.32 -43.867)">
                <path d="m31.24-6.9731 0.67306 35.018-0.98249 0.09355-0.42045-33.923-0.80386 0.09354 0.3311 39.067h-1.3398l-0.24179-39.255h-1.3398l-0.02608 43.371-1.0718-0.09355-0.15244-42.996h-1.3398l-0.2048 34.952h-1.3398l0.20478-34.952h-1.1611l-0.47276 38.132h-1.0718l0.47273-38.038h-1.4227l-0.4792 41.313h-1.1611l1.0979-40.938h-1.0718l-1.2766 43.745-1.1611-0.09355 1.0087-44.025h-1.0718l-0.99038 32.123h-1.0105l0.69474-31.948h-1.762l-0.95373 42.664h-1.1368l0.91672-42.664h-1.6728l-0.63343 50.337h-1.1368l0.5441-50.072h-2.2457l0.18577 52.189 0.07264 0.28063-1.4802-54.52z" fill="#030206" fill-opacity=".69424"/>
                <path d="m-24.607-6.8796-0.67306 35.018 0.98249 0.09355 0.42045-33.923 0.80386 0.09354-0.3311 39.067h1.3398l0.24179-39.255h1.3398l0.02608 43.371 1.0718-0.09355 0.15244-42.996h1.3398l0.2048 34.952h1.3398l-0.20477-34.952h1.1611l0.47276 38.132h1.0718l-0.47273-38.038h1.4227l0.4792 41.313h1.1611l-1.0979-40.938h1.0718l1.2766 43.745 1.1611-0.09355-1.0087-44.025h1.0718l0.99038 32.123h1.0105l-0.69474-31.948h1.762l0.95373 42.664h1.1368l-0.91672-42.664h1.6728l0.63343 50.337h1.1368l-0.5441-50.072h2.2457l-0.18577 52.189-0.07264 0.28063 1.4802-54.52z" fill="#100205"/>
            </g>
        </g>
        <g>
            <path d="m0.25657 17.812c-0.48994-0.32991-0.57227-0.73126-0.23902-1.1652 0.42326-0.55114 1.6101-0.64807 2.2503-0.18377 0.91066 0.66048 0.24396 1.6396-1.1164 1.6396-0.3576 0-0.56168-0.06628-0.89481-0.2906zm61.688 0c-0.36776-0.24764-0.43156-0.3497-0.43156-0.69034 0-0.3255 0.06717-0.44497 0.36169-0.64329 0.76187-0.51302 1.8652-0.37754 2.3519 0.2888 0.4734 0.64802-0.20503 1.3354-1.318 1.3354-0.43641 0-0.61046-0.05246-0.96411-0.2906zm-30.324-3.2137c0.04315-0.04701 0.03652-0.13115-0.01472-0.18698-0.27213-1.5268 0.10224-2.93-0.07673-4.389-0.01951-0.01239-0.49242-0.04532-1.0509-0.07318-1.3206-0.06588-2.0917-0.1432-2.1049-0.21108-0.10057-0.51722-0.06609-0.52746 1.7909-0.53189 1.1809-0.0028 1.266-0.01454 1.266-0.17437 0-0.09424 0.05592-0.24171 0.12426-0.3277 0.21322-0.26827-0.1147-0.33328-1.8792-0.37251-0.92601-0.02059-1.7178-0.06041-1.7595-0.08849s-0.0056-0.10799 0.08013-0.17758c0.08577-0.06959 0.12154-0.16402 0.07948-0.20984-0.13763-0.14995 0.14495-0.18394 1.7321-0.20832 1.5578-0.02393 1.9525-0.07677 1.8016-0.24118-0.04349-0.04739-0.08726-0.41973-0.09727-0.82744l-0.0182-0.74128 1.2058-0.0521v1.8793l0.85678-0.02616c0.47123-0.01439 1.2566-0.0024 1.7453 0.0266l0.88851 0.05277 0.02054 0.27527c0.0113 0.1514-0.01726 0.27184-0.06347 0.26766-0.0462-0.0042-0.11257 4.02e-4 -0.14747 0.01019-0.03491 0.0098-0.66321 0.03493-1.3962 0.05586-1.9354 0.05527-1.9259 0.05285-1.8793 0.47647l0.03883 0.35329 1.403 0.02505c0.77166 0.01378 1.5428 0.06263 1.7136 0.10856 0.22123 0.0595 0.24665 0.08507 0.0884 0.08893-0.27802 0.0068-0.27996 0.06429-0.0083 0.24657 0.20024 0.13437 0.14839 0.14921-0.81746 0.23394-0.56719 0.04976-1.3488 0.08719-1.737 0.08318l-0.70571-0.0073c-0.016 1.6597 1e-3 3.0914 0.01264 4.7482h-0.58502c-0.35769 0-0.55453-0.03321-0.50657-0.08547zm-21.19-0.84726c-0.04691-0.05111-0.20061-0.09292-0.34158-0.09292-0.14096 0-0.46934-0.15385-0.72974-0.34188-0.26039-0.18804-0.52176-0.34188-0.58082-0.34188-0.05906 0-0.75042-0.4327-1.5364-0.96155-0.78594-0.52885-1.6625-1.109-1.9479-1.2893-0.28538-0.18025-0.51888-0.35918-0.51888-0.39763 0-0.03845 0.17664-0.11137 0.39254-0.16205 0.34245-0.08039 0.44572-0.06483 0.80924 0.12187 0.22918 0.11771 0.78004 0.49196 1.2241 0.83166 0.72731 0.55634 1.2073 0.90456 3.0059 2.1807 0.33638 0.23867 0.49978 0.41716 0.42685 0.46627-0.07293 0.04911-0.15081 0.044-0.20344-0.01335zm43.007 0.01759c-0.06717-0.01508 0.73702-0.63265 1.7871-1.3724 3.7243-2.6236 3.4867-2.4727 3.6318-2.3065 0.07182 0.08227 0.22042 0.14957 0.33022 0.14957 0.16306 0 0.17068 0.02349 0.04162 0.12821-0.08691 0.07051-0.11325 0.12821-0.05854 0.12821 0.05471 0-0.3108 0.26923-0.81224 0.5983-0.50144 0.32906-0.9676 0.5983-1.0359 0.5983-0.06831 0-0.1242 0.03979-0.1242 0.08841 0 0.1134-1.6079 1.1937-1.7767 1.1937-0.06999 0-0.12725 0.03229-0.12725 0.07175s-0.1428 0.11556-0.31732 0.16911c-0.17453 0.05355-0.31732 0.15132-0.31732 0.21726 0 0.11836-0.98438 0.38931-1.2212 0.33614zm-36.413-1.7855c-0.27112-0.23048-0.7002-0.59213-0.95351-0.80367-0.25331-0.21154-0.85117-0.75962-1.3286-1.218-0.47741-0.45834-0.90577-0.83334-0.95192-0.83334-0.04614 0-0.39408 0.15811-0.7732 0.35136-0.64276 0.32763-1.3599 0.58882-1.6168 0.58882-0.11111 0-0.40524-0.37032-0.40524-0.51022 0-0.04115 0.19992-0.11925 0.44426-0.17355 0.24434-0.0543 0.44426-0.15344 0.44426-0.22031 0-0.06687 0.0714-0.12261 0.15866-0.12388 0.08726-0.0013 0.35688-0.11296 0.59915-0.24821 0.42597-0.23781 0.43434-0.25384 0.25386-0.48656-0.22413-0.28901-0.39526-0.42694-1.1238-0.90579-0.65016-0.42734-0.90746-0.78264-0.81152-1.1206 0.07862-0.27693 0.28194-0.35465 0.72976-0.27896 0.37473 0.06333 0.95546 0.4634 0.95546 0.65823 0 0.07641 0.10571 0.23065 0.23491 0.34276 0.1292 0.11211 0.25862 0.2423 0.28761 0.28931 0.20658 0.33503 0.68175 0.7265 0.88184 0.7265 0.1303 0 0.43207-0.11538 0.6706-0.25641 0.23853-0.14103 0.50029-0.25641 0.58169-0.25641 0.0814 0 0.28459-0.10577 0.45154-0.23505 0.32179-0.24917 0.58687-0.22279 0.87738 0.08734 0.1646 0.17571-0.19077 0.44779-1.2248 0.93777-0.75198 0.35631-0.82144 0.42597-0.60075 0.60245 0.22928 0.18334 0.87552 0.77773 1.2274 1.1289 0.1884 0.18804 0.40294 0.38035 0.47676 0.42736 0.18522 0.11795 1.3192 1.2742 1.4156 1.4435 0.04317 0.07576 0.024 0.13774-0.04262 0.13774-0.06661 0-0.17598 0.0828-0.24305 0.184-0.11534 0.17407-0.14856 0.16137-0.61487-0.23504zm29.7 0.15925c-0.07068-0.03601-0.13651-0.17636-0.14629-0.31188-0.02025-0.28064 0.33808-0.67972 1.8492-2.0595 0.56523-0.51612 1.0277-0.98058 1.0277-1.0321 0-0.11399-0.388-0.34889-1.1195-0.67774-0.30156-0.13557-0.62855-0.35101-0.72664-0.47875-0.16645-0.21675-0.15731-0.24154 0.13706-0.37141 0.3442-0.15186 0.72685-0.0799 0.8651 0.16269 0.04093 0.07182 0.16862 0.13058 0.28377 0.13058 0.11514 0 0.40452 0.11538 0.64305 0.25641 0.23853 0.14103 0.51189 0.25641 0.60745 0.25641 0.17963 0 1.3654-1.1802 1.5201-1.5129 0.10007-0.21526 0.80806-0.53844 1.1796-0.53844 0.13804 0 0.30996 0.08826 0.38343 0.19684 0.19553 0.28897-0.09577 0.77673-0.68974 1.1549-0.77434 0.49306-1.445 1.0938-1.3653 1.2229 0.07814 0.12655 0.88816 0.50224 1.0829 0.50224 0.06497 0 0.11813 0.04926 0.11813 0.10947 0 0.06021 0.17136 0.15302 0.38079 0.20625 0.41176 0.10466 0.49365 0.31691 0.21963 0.56925-0.14676 0.13515-0.20061 0.13718-0.60292 0.02267-0.24297-0.06915-0.75195-0.28243-1.1311-0.47396-0.37912-0.19152-0.73482-0.34822-0.79046-0.34822-0.09008 0-0.73377 0.5807-1.9764 1.783-0.65138 0.63023-1.6079 1.3034-1.7496 1.2312zm-25.047-4.4109c-0.1503-0.19552-0.50037-0.62472-0.77792-0.95378-0.79586-0.94355-1.4941-1.827-1.9891-2.5166l-0.45664-0.63623 0.28549-0.15567c0.38235-0.20848 0.52913-0.11685 1.1121 0.69425 0.25633 0.35662 0.51052 0.66122 0.56487 0.67689 0.05434 0.01567 0.09881 0.09625 0.09881 0.17906 0 0.08282 0.11424 0.22019 0.25386 0.30527 0.13962 0.08508 0.25386 0.21925 0.25386 0.29815 0 0.0789 0.03676 0.1682 0.0817 0.19846 0.1287 0.08666 0.67864 1.0285 0.6793 1.1633 3.81e-4 0.06681 0.08871 0.18704 0.19641 0.26718 0.28562 0.21252 0.38682 0.72755 0.15475 0.78752-0.12336 0.03188-0.27459-0.06988-0.45754-0.30787zm20.289 0.07421c0-0.11624 0.14871-0.43355 0.33046-0.70514 0.18175-0.27159 0.3727-0.57072 0.42433-0.66474 0.125-0.22763 0.87736-1.2566 1.6806-2.2983 0.55663-0.72196 0.67398-0.82488 0.80401-0.70514 0.08374 0.07711 0.21735 0.1402 0.29692 0.1402 0.07957 0 0.14467 0.05011 0.14467 0.11136 0 0.12585-0.80031 1.2311-1.4047 1.9399-0.22045 0.25855-0.61625 0.73932-0.87956 1.0684-0.92846 1.1603-1.0809 1.3234-1.2381 1.3241-0.08726 3.85e-4 -0.15866-0.0944-0.15866-0.21064zm-10.472-3.909c-0.93491-0.36104-0.98259-1.251-0.08996-1.679 0.58256-0.27932 1.2168-0.24472 1.7251 0.09413 0.53633 0.35753 0.61798 0.52182 0.45806 0.92173-0.24804 0.62029-1.3226 0.96068-2.0932 0.66309z" display="none" fill="#610000" stroke-width=".10416"/>
            <path d="m40.473 39.368c2.2455-3.2286 4.503-8.248 7.0803-9.6287 2.2744-1.6007 5.9225-1.9433 6.7977-1.8482 2.9192 0.04933 6.4635 1.2328 7.2498 2.2313 0.80692 0.76216 2.1268 5.485 0.20274 7.6925-0.24018 0.54265-1.5705 0.31644-1.1683-1.2222 0.29152-9.1882-9.3728-3.9564-10.689 6.7919-0.31761 1.9727 5.1185 15.2 3.3114 18.952-0.59286 2.4525-3.8023-1.9111-5.855 0.25083l-8.864-0.06636z" fill="url(#linearGradient18496)"/>
            <path d="m9.1943 51.395c3.902-6.3359 9.4008-3.7457 11.576-3.3734l10.12 9.1281-0.06615 5.7547-9.988-0.19844c14.534-15.207-10.947-12.861-12.747-4.223-1.0645 5.9802-1.3197-4.2189 1.1052-7.0879z" fill="url(#linearGradient18541)" stroke-width=".175"/>
            <path d="m46.235 47.38c2.1605-5.349 3.7957-9.3159 8.735-9.8255 3.4066-0.71806 8.0088 3.4436 8.8217-0.42652 1.4081 0.09121-3.339 6.2566-5.0574 3.8162-0.87221-0.93715-9.5492-0.08323-5.5567 9.0057 0.05998 1.2246 2.6396 5.5221 2.2208 7.9953-0.01314 1.5461 0.76761 3.1151 0.07818 4.6613l-7.0268 0.03833c-1.5508-3.2824-3.1945-5.7852-2.2147-15.265z" fill="#322622"/>
            <path d="m41.537 40.14c0.68809-4.6015 4.1723-9.3121 5.116-9.9785 3.5362-2.4974 10.572-3.2425 14.568-0.27362-3.1076-0.47687-13.312-2.0649-15.692 15.168z" fill="url(#linearGradient18488)" stroke-width=".175"/>
            <path d="m7.5771 60.196c4.4322-21.116 19.806-2.46 20.627 2.7596-3.251-0.16292-2.9076-0.1299-7.39-0.18709 3.0891-1.6258-9.1705-16.973-13.237-2.5725z" fill="url(#linearGradient18533)" stroke-width=".175"/>
            <path d="m59.201 41.407c-7.3391-3.5476-3.8485 16.331-0.59531 21.303l-3.7703 0.06246-7.4083-0.37482c3.1155-8.3956-1.6799-24.846 11.443-23.052 2.0021 0.75154 3.4414 0.99953 4.2173-0.23418 0.34524 0.50411-3.0224 3.1431-3.8866 2.2957z" fill="url(#linearGradient15478)" stroke-width=".17007"/>
        </g>
        <g>
            <path d="m7.3149 46.866c0.27166 0.24098 0.69043 0.43264 1.2983 0.25333 11.192-5.1078 12.107-2.8757 16.91-3.42l4.2433 0.88666 13.047-4.6233c1.4748-1.0676 4.6424-1.7046 3.0716-4.0216l-3.23-1.9316c-5.8259-0.02429-4.6972 0.16889-6.9349 0.25333-7.0932 1.8578-14.186 2.7041-21.28 5.5733-1.8623 1.0885-3.8155 2.294-6.8399 4.8766-0.77877 1.0513-0.73128 0.96321-0.285 2.1533z" fill="#4a3935" stroke="#000" stroke-width=".275"/>
            <path d="m7.0757 45.499c0.21362 0.39654 0.18997 0.99385 0.75011 1.0972 2.422-0.59317 4.844-2.2242 7.266-3.3363 2.4854-1.3742 5.0455-0.95537 7.5683-1.4331l-6.1017 2.2503c-1.055 0.09228-3.0009 0.82723-5.15 1.657-0.3674 0.16173-1.7072 0.77009-2.8549 1.3323-0.50282 0.06095-0.83546 0.01756-1.1084-0.2575-0.31208-0.43663-0.2715-0.87327-0.36946-1.3099z" fill="#92696b"/>
        </g>
        <g transform="matrix(.57664 .055159 .22688 .75192 -13.73 -1.0723)">
            <path d="m28.894 57.041c-0.03077 0.02044-0.13207 0.08743-0.21822 0.17255-0.03563 0.03521-0.07532 0.0797-0.11053 0.13332-0.01802 0.02745-0.0374 0.06111-0.05446 0.10067-0.01908 0.04272-0.03432 0.10378-0.02586 0.17079 0.0035 0.02791 0.01133 0.05743 0.02547 0.08599 0.01307 0.0264 0.03173 0.0522 0.05719 0.07435 0.03026 0.02635 0.0641 0.04725 0.10086 0.06336 0.03483 0.01526 0.07167 0.02595 0.10979 0.03315 0.07203 0.0136 0.14682 0.01443 0.21908 0.01132 0.14787-0.0086 0.29075-0.04033 0.43498-0.08307 0.13742-0.04072 0.27398-0.09092 0.41105-0.13609 0.38125-0.13414 0.78172-0.28575 1.143-0.51083 0.08291-0.05401 0.16804-0.11307 0.24439-0.1821 0.07667-0.06931 0.1453-0.14945 0.19391-0.24508 0.02771-0.05353 0.04266-0.11168 0.04651-0.16961 0.0039-0.05916-0.0037-0.11818-0.02096-0.17319-0.01992-0.08169-0.05941-0.16214-0.11361-0.22816-0.02806-0.03418-0.06008-0.06453-0.09562-0.08983-0.03659-0.02605-0.07666-0.04658-0.11967-0.06055-0.05326-0.01768-0.1068-0.02719-0.15905-0.03088-0.05429-0.0038-0.1076-0.0014-0.15863 0.0048-0.10876 0.01321-0.21359 0.0445-0.30078 0.07465-0.31941 0.11505-0.61056 0.30343-0.75483 0.39794a0.052525 0.052525 90 0 0 0.05756 0.08787c0.14452-0.09468 0.42639-0.27658 0.73224-0.38676 0.08387-0.029 0.18058-0.05754 0.27848-0.06943 0.04566-0.0055 0.09215-0.0076 0.13856-0.0043 0.0446 0.0031 0.08939 0.0112 0.13367 0.02589 0.03273 0.01063 0.06325 0.0262 0.09152 0.04632 0.0275 0.01958 0.0528 0.04344 0.07536 0.07091 0.04375 0.05329 0.07641 0.11934 0.09367 0.18974 0.01443 0.04631 0.02031 0.09231 0.01727 0.13799-3e-3 0.04463-0.01444 0.08859-0.03517 0.12863-0.04148 0.0816-0.10077 0.1517-0.17089 0.2151-0.07012 0.06339-0.1497 0.11886-0.23039 0.17144-0.34979 0.2179-0.74069 0.36636-1.1204 0.49999-0.13842 0.04561-0.27388 0.09535-0.40702 0.13481-0.13996 0.04148-0.27435 0.071-0.41043 0.07888-0.06831 0.0029-0.13384 0.0018-0.19429-0.0096-0.03166-6e-3 -0.06071-0.01457-0.08713-0.02615-0.02776-0.01216-0.05239-0.02752-0.07404-0.04637-0.01411-0.01227-0.02451-0.02656-0.03202-0.04173-0.0082-0.01656-0.01311-0.03449-0.01539-0.05254-0.0056-0.0441 0.0046-0.08572 0.01783-0.11542 0.01446-0.03353 0.0307-0.06181 0.04607-0.08522 0.03007-0.04579 0.06453-0.08461 0.09656-0.11626 0.07809-0.07716 0.17151-0.13918 0.20252-0.15978a0.052525 0.052525 90 0 0-0.05814-0.08749z"/>
            <path d="m25.26 59.181c0.03493-0.0065 0.12811-0.02683 0.21996-0.09366 0.02247-0.01635 0.04596-0.03631 0.06841-0.06043 0.0068-0.0073 0.01373-0.01523 0.02072-0.0239 0.02227-0.02762 0.04593-0.06384 0.06374-0.10916 0.01471-0.03522 0.02521-0.07628 0.02875-0.12104 0.0031-0.03908 8.04e-4 -0.08036-0.0078-0.12254-0.01504-0.07345-0.04975-0.15051-0.10708-0.21609-0.05675-0.06727-0.12914-0.12119-0.21194-0.1629-0.07633-0.03845-0.15942-0.06549-0.244-0.0844-0.11702-0.02936-0.24513-0.05978-0.37517-0.0805-0.12634-0.02013-0.25833-0.0318-0.39333-0.02505-0.07483 0.0044-0.15475 0.01572-0.23155 0.04084-0.07643 0.025-0.15115 0.06414-0.21377 0.12495-0.04979 0.04735-0.08478 0.10481-0.10852 0.16421-0.02401 0.0601-0.03689 0.12304-0.04266 0.18257-0.01027 0.08526-0.01316 0.17639-0.0011 0.26548 0.01268 0.09336 0.04168 0.18336 0.09412 0.26339 0.04534 0.07024 0.10699 0.12158 0.17077 0.15734 0.07017 0.03935 0.145 0.06121 0.2134 0.07107 0.19154 0.02925 0.38377-0.0087 0.47112-0.02693a0.077303 0.077303 90 0 0-0.03151-0.15136c-0.0872 0.01815-0.25496 0.05009-0.41691 0.02536-0.0535-0.0077-0.10955-0.02443-0.16047-0.05299-0.04611-0.02586-0.08716-0.06087-0.1168-0.10679-0.03766-0.05746-0.06034-0.12484-0.07053-0.19989-0.0098-0.07242-0.0078-0.14974 0.0016-0.22799 0.0049-0.05022 0.01512-0.0983 0.03254-0.14189 0.01712-0.04284 0.04076-0.08033 0.07208-0.11012 0.04256-0.04133 0.09507-0.06997 0.1547-0.08947 0.06031-0.01972 0.12621-0.02952 0.19193-0.03342 0.12059-6e-3 0.24134 0.0044 0.36057 0.02336 0.12302 0.0196 0.24569 0.04862 0.36382 0.07824 0.0773 0.01731 0.14775 0.04064 0.21011 0.07206 0.06729 0.0339 0.12212 0.07567 0.16422 0.12556 0.03931 0.04498 0.06282 0.09715 0.0729 0.14637 0.0057 0.02802 0.0071 0.05476 0.0052 0.07935-0.0022 0.02809-0.0087 0.05319-0.01791 0.07517-0.0116 0.02947-0.02638 0.05226-0.04082 0.07017-0.0045 0.0056-0.0091 0.01082-0.01353 0.0156-0.01482 0.01592-0.03064 0.02942-0.04621 0.04075-0.06466 0.04705-0.13155 0.06189-0.15727 0.06668a0.077303 0.077303 90 0 0 0.02827 0.152z"/>
            <path d="m24.303 58.894c0.04361-0.03131 0.12294-0.08459 0.23677-0.13829 0.0029-0.0014 0.0059-0.0028 9e-3 -0.0042 0.04589-0.0204 0.11681-0.05139 0.18622-0.05544 0.0091-0.0011 0.01421-9.29e-4 0.01967 3.4e-5 0.0055 9.73e-4 0.01155 0.0028 0.01837 0.0057 0.01467 0.0062 0.02939 0.01564 0.04737 0.02704 0.02485 0.01353 0.04583 0.02392 0.06803 0.03209 0.03206 0.0118 0.05804 0.01565 0.079 0.01626a0.052587 0.052587 90 0 0 0.0031-0.10513c-0.0099-2.88e-4 -0.02461-0.0021-0.04574-0.0098-0.01543-0.0057-0.03142-0.01342-0.05126-0.0241-0.01246-0.0081-0.03509-0.02284-0.05938-0.03315-0.01244-0.0053-0.0262-0.0098-0.04118-0.01247-0.01526-0.0027-0.03131-0.0033-0.04801-0.0011-0.08764 5e-3 -0.17576 0.04478-0.21968 0.06432-4e-3 0.0019-0.0072 0.0034-0.01036 0.0048-0.12119 0.05716-0.2061 0.11412-0.25325 0.14798a0.052587 0.052587 90 0 0 0.06134 0.08543z"/>
            <path d="m26.081 57.947c-0.02626 0.02299-0.07553 0.07399-0.1003 0.15765-0.01139 0.03845-0.0181 0.08646-0.01037 0.13875 0.0023 0.01544 6e-3 0.03244 0.01194 0.05033 0.01227 0.04078 0.03816 0.08768 0.08278 0.12725 0.03465 0.03074 0.08123 0.0572 0.13677 0.06777 0.03937 0.0089 0.08092 9e-3 0.1224 0.0038 0.03788-0.0048 0.07439-0.01385 0.10935-0.02324 0.06258-0.01593 0.13171-0.03537 0.19886-0.06212 0.06503-0.02591 0.13055-0.05955 0.19051-0.1062 0.03866-0.02988 0.07399-0.06772 0.10072-0.11185 0.0265-0.04376 0.04479-0.09417 0.04872-0.14884 0.0038-0.04522-0.0016-0.08912-0.01077-0.1299-0.0092-0.04092-0.02276-0.08009-0.03561-0.11504-0.01693-0.04245-0.03772-0.08511-0.06581-0.12337-0.01451-0.01976-0.03102-0.03843-0.04993-0.05509-0.01945-0.01713-0.04121-0.03193-0.06549-0.04351-0.02392-0.01138-0.04821-0.01789-0.07186-0.02085-0.02448-0.0031-0.04828-0.0023-0.0705 6.93e-4 -0.04744 0.0065-0.09046 0.02378-0.12444 0.0422-0.0732 0.03885-0.13297 0.09267-0.16146 0.11898a0.064184 0.064184 90 0 0 0.08709 0.0943c0.02747-0.02537 0.077-0.06936 0.13506-0.10017 0.02496-0.01353 0.05305-0.0243 0.08109-0.02812 0.01287-0.0018 0.02535-2e-3 0.0372-5.1e-4 0.01133 0.0014 0.02222 0.0044 0.03258 0.0094 0.01267 6e-3 0.02459 0.01403 0.03586 0.02396 0.01103 0.0097 0.02144 0.0213 0.0313 0.03473 0.01938 0.02641 0.03543 0.05829 0.04944 0.09335 0.01176 0.03206 0.02291 0.06488 0.03025 0.09738 0.0072 0.03195 0.01045 0.06233 8e-3 0.09167-0.0023 0.03239-0.01304 0.06339-0.03054 0.09228-0.01774 0.02929-0.04197 0.05557-0.06958 0.07691-0.04801 0.03735-0.10207 0.06557-0.15936 0.08839-0.05939 0.02367-0.1222 0.04149-0.18384 0.05719-0.03476 0.0093-0.06421 0.01644-0.09292 0.02007-0.03067 0.0039-0.05677 0.0032-0.08029-0.0021-0.03188-0.0061-0.05788-0.02061-0.07762-0.03812-0.02518-0.02234-0.03899-0.04807-0.04558-0.06993-0.0039-0.01176-6e-3 -0.02145-0.0073-0.0304-0.0045-0.03044-6.81e-4 -0.05938 0.0065-0.08353 0.01564-0.05283 0.0447-0.08256 0.06178-0.09752a0.064184 0.064184 90 0 0-0.08457-0.09658z"/>
            <path d="m28.973 57.555c0.03574 0.0015 0.11778 3e-3 0.22953-0.02134 0.0112-0.0024 0.02346-0.0053 0.0367-0.0087 0.0667-0.01696 0.14896-0.04434 0.24833-0.09089 0.05112-0.02517 0.11097-0.05719 0.16829-0.0972 0.04883-0.03409 0.09814-0.0755 0.14116-0.12672 0.12732-0.06799 0.27163-0.10874 0.42127-0.11793 0.06059-0.0045 0.12299-0.0074 0.18478-0.018 0.03212-0.0055 0.06356-0.01296 0.09403-0.02355 0.03199-0.01112 0.06225-0.02544 0.0906-0.04386 0.07222-0.04616 0.1275-0.10536 0.16924-0.15834 0.05485-0.06963 0.10232-0.15067 0.12402-0.18762a0.042349 0.042349 90 0 0-0.07303-0.0429c-0.02205 0.03755-0.06678 0.11369-0.11752 0.1781-0.03849 0.04885-0.08701 0.1002-0.14859 0.13956-0.02228 0.01447-0.04627 0.02593-0.07253 0.03505-0.02511 0.0087-0.05185 0.01517-0.08049 0.02007-0.05663 0.0097-0.11301 0.01226-0.17626 0.01699-0.16395 0.01006-0.32294 0.05551-0.46313 0.13188-0.0024 0.0013-0.0048 0.0027-0.0069 0.0044-0.0021 0.0018-0.0039 0.0038-0.0056 6e-3 -0.03804 0.04663-0.08308 0.08502-0.12947 0.11741-0.05232 0.03652-0.1079 0.06638-0.15648 0.09031-0.09378 0.04393-0.171 0.06951-0.23252 0.08515-0.01224 0.0031-0.02355 0.0058-0.03385 8e-3 -0.10228 0.02228-0.17653 0.02078-0.208 0.01947a0.042349 0.042349 90 0 0-0.0035 0.08463z"/>
        </g>
        <g fill="#443a4a" stroke="#000">
            <path d="m15.732 38.996c0.87684-1.0981 1.3811-2.8654 2.3456-3.6392l1.5674 4.1424c-0.59765-0.11483-0.01904-0.70171-1.4097-0.41639-0.16584 0.09059-0.5506 0.14722-0.80656 0.2687-0.66668 0.0735-1.5782 5.16e-4 -1.6967-0.35555z" stroke-width=".165"/>
            <path d="m39.235 31.888-0.71137-3.4929c1.5764 0.78477 2.8768 1.5805 3.988 2.2525l0.42478 0.90328c0.0164 0.13684 0.0089 0.26685-0.18072 0.34482-0.95668 0.31718-2.3466 0.0013-3.5207-0.0077z" stroke-width=".124"/>
            <path d="m23.971 46.581c-1.3234-0.20135-4.2166-0.71664-6.3333-1.0767-0.82598-0.23896-0.85991-0.56593-0.94999-0.88666-0.19649-0.64729 0.04013-1.208 0.25333-1.7733 0.24213-0.58247 0.71087-0.48512 1.1083-0.60166l3.42 0.15833 4.0533 2.6916 0.31666 1.52z" stroke-width=".175"/>
            <path d="m41.546 35.704 1.2825-2.2008c0.45077-0.76138 3.6363 0.73339 2.9133 1.805l-1.4883 3.9583-2.5016 1.1558-1.2983-1.4408z" stroke-width=".175"/>
        </g>
        <g>
            <path d="m20.383 42.185c1.1128-0.26598 5.1575 0.70458 7.6934 0.17913l10.669-4.5667c0.98462-0.95334 1.6168-1.0139 3.0004-2.9781l-0.38065 1.1756c-0.32003 1.7232-0.12248 3.7014 0.03359 3.8849 0.03985 0.24835 0.30654 0.46489 0.38065 0.75011l0.19033 0.66055-16.211 6.0233c-0.21658-0.42542-0.2613-0.23823-0.22186-0.70632-0.1504-0.59837-0.9976-1.7129-1.5695-2.227l-1.9487-1.5063c-0.45529-0.17167-0.82886-0.64416-1.635-0.68917z" fill="#972328" stroke="#000" stroke-width=".275"/>
            <path d="m23.227 42.317c1.1128-0.26598 2.3132 0.57228 4.8491 0.04684l10.669-4.5667c0.98462-0.95334 1.6168-1.0139 3.0004-2.9781l-0.64524 1.1756c-0.22349 2.8458-1.4228 2.5817-1.5371 2.4191-0.97109 1.1387-3.733 2.8629-5.399 2.6118-1.9577 0.79677-2.4797 2.1241-4.9456 2.0154-1.1547 1.4714-3.977 1.4714-4.6717 0.65038l-1.9998-1.2474c-0.45529-0.17167 1.4862-0.08193 0.68006-0.12693z" fill="#662b2f"/>
            <path d="m41.483 35.656 0.38-0.98166" fill="#505138" stroke="#000" stroke-width=".275"/>
        </g>
        <g>
            <path d="m28.943 63.586c-0.18473-3.926 0.7935-5.2392 3.8-6.8399l12.603-8.2332 1.7733-2.1533c1.1502 0.67678 1.9909 2.3127 2.5966 4.3066 1.0749 3.8956-1.5795 5.679-0.75999 13.173-2.0491 0.52847-19.556 0.11116-20.013-0.25333z" fill="url(#linearGradient18525)" stroke="#000" stroke-width=".475"/>
            <path d="m21.503 46.284c-0.71653 0.92551-1.4623 1.5846-2.0546 2.824-0.71129 1.7615-0.67822 3.4642-0.40848 5.2257 0.43748 1.6476 1.0096 3.0338 2.1944 4.579 0.52247 0.53692 0.96656 0.67792 1.489 0.86207 0.47078 0.06054 1.4791 0.3111 2.1496 0.01119 2.6564-0.52563 4.8222-1.511 7.6467-3.0452 3.8069-2.4091 7.6461-4.6564 11.375-7.4563 1.0151-0.79116 1.8958-1.5665 2.5712-2.3102 1.0658-1.1371 1.1187-2.2609 1.2802-3.7803 2.42e-4 -3.6481 0.18387-6.6212-1.9033-7.4787-1.8326 5.807-2.2483 3.1519-20.125 10.911-1.5024 0.23332-2.7188-0.06147-4.2144-0.34196z" fill="url(#linearGradient18504)" stroke="#000" stroke-width=".475"/>
            <path d="m47.531 42.591c-1.6498 0.13919-5.4205 3.1192-6.66 5.7219-1.6612 3.4881-11.7 8.001-13.108 8.276-4.786 0.93491-4.8606 2.2975-7.18 0.98032 0.72215 1.0533 1.1798 2.2677 3.7683 2.185 3.7793-0.15869 15.942-7.282 21.343-12.445 1.4166-0.50478 1.7533-2.8683 1.8366-4.7183z" fill="url(#linearGradient18512)"/>
            <path d="m33.498 56.516c-1.0117 1.1345-1.6129 2.269-1.6122 3.4035-0.01136 1.2297 0.20988 2.549 0.34833 3.7039l-3.0409-0.21639c-0.15893-5.9784 2.8725-5.4562 4.3048-6.891z" fill="#b5999a"/>
        </g>
        <g transform="matrix(1.3937 0 0 .80561 -21.829 -28.871)" fill="#f4edd6">
            <g transform="matrix(1.1132 0 0 1.1056 -3.9635 -4.0119)">
                <path d="m40.867 38.284-4.1938 0.0075c-0.1442 4.67e-4 -0.20719 0.07809-0.22718 0.20307l-0.02065 7.8187-0.93702 0.04177c-0.4972 0.1637-0.26573 1.8475 0.14024 1.8241 0.28871-0.01267 0.5499-0.0217 0.79179-0.02901l-0.02865 10.84c0.0024 0.16692 0.0661 0.27548 0.20186 0.27907l1.6226-0.0041c0.16272 0.0028 0.20739-0.114 0.21485-0.25586l-0.01499-10.881c0.48992 9.42e-4 0.86127-0.0025 1.2954-0.05106 1.4481-0.17235 1.9112-0.743 1.8927-2.702l0.01366-5.9313c0.07922-0.50972-0.08291-0.89913-0.75082-1.1598zm-4.421 0.21061v-0.02553l-3e-3 0.04293c7.54e-4 -0.0061 0.0021-0.01149 3e-3 -0.01741zm-3e-3 0.01741c-0.0026 0.0215-0.0045 0.04393-5e-3 0.06788zm2.6748 0.94804c0.34435-0.0036 0.69 0.17031 0.72017 0.52507-0.06035 6.0129 0.3164 6.2018-1.2162 6.2301l-0.20819 0.0093-0.0087-6.2226c0.02528-0.35721 0.36849-0.53827 0.71284-0.5419zm-1.787 15.681c0.0019 1.0508 0.01226 2.103 0.01011 3.1532 0.0064 0.35507-0.5907 0.53331-0.67182 0.02834l-1.03e-4 -10.171c0.04691-0.24192 0.52987-0.33845 0.66318-0.01963z" fill="#f4edd6"/>
                <path d="m36.694 39.004-0.02407 9.3249c0.0107 0.28586 0.72773 0.18638 0.65939 0.0066l0.02777-9.3014c-0.01478-0.29675-0.69787-0.24028-0.66307-0.03011z" fill="#100f22"/>
                <path d="m39.702 39.308c0.33586 0.36617 0.40334 0.78238 0.38135 1.1888 0.01614 0.25448-0.04705 3.4615-0.043 5.1557-0.01821 0.45276-0.58824 0.79656-0.35924 0.78684 0.38504-0.01634 0.46412 0.02727 0.61179-0.07118 0.20777-0.15061 0.38336-0.33259 0.39211-0.69827l0.0037-5.3039c-0.01149-0.57315-0.21448-0.96743-0.46004-1.1288-0.29758-0.09284-0.90479-0.04209-0.52662 0.07088z" fill="#100f22"/>
            </g>
            <g transform="translate(.42855 .11612)">
                <path d="m43.459 38.616 0.01534 1.3249c-0.0066 0.22416 0.05368 0.37165 0.24672 0.36684l1.3335 0.0195c0.05231 0.01235 0.12117-0.05249 0.12421 0.40426l0.0014 18.828c0.01328 0.47278 0.10933 0.54882 0.20784 0.61306l1.5551-0.02462c0.15608-0.08873 0.19133-0.32451 0.1963-0.59717l0.05773-18.897c-0.0052-0.2497 0.04332-0.40077 0.16176-0.43677l1.8187 0.01834c0.09579-0.01029 0.10282-0.14648 0.10829-0.28494l0.01018-1.2688c0.0056-0.2189-0.08239-0.28816-0.19909-0.31161l-5.4545-0.03057c-0.1265-7.49e-4 -0.1778 0.03517-0.18344 0.27689z" fill="#f4edd6" stroke-opacity=".26269" stroke-width=".13171"/>
                <path d="m43.416 61.022 0.01534-1.3249c-0.0066-0.22416 0.05368-0.37165 0.24672-0.36684l1.3335-0.0195c0.05231-0.01235 0.12117 0.05249 0.12421-0.40426l0.0014-18.828c0.01328-0.47278 0.10933-0.54882 0.20784-0.61306l1.5551 0.02462c0.15608 0.08873 0.19133 0.32451 0.1963 0.59717l0.05773 18.897c-0.0052 0.2497 0.04332 0.40077 0.16176 0.43677l1.8187-0.01834c0.09579 0.01029 0.10282 0.14648 0.10829 0.28494l0.01018 1.2688c0.0056 0.2189-0.08239 0.28816-0.19909 0.31161l-5.4545 0.03057c-0.1265 7.49e-4 -0.1778-0.03517-0.18344-0.27689z" fill="#f4edd6" stroke-opacity=".26269" stroke-width=".13171"/>
                <g fill="#100f22">
                    <path d="m43.645 38.71-0.0064 1.2134c-8.47e-4 0.31458 0.87142 0.33398 0.86187 8.62e-4l0.0015-1.2039c-0.0072-0.36259-0.86391-0.31384-0.85696-0.01035z" display="none"/>
                    <path d="m45.402 40.377c0.0099 0.10517 0.03581 17.864 0.04 18.253 0.0092 0.84916 0.02387 0.92043-0.25454 1.0523 0.64471 0.21558 0.93763-0.11055 0.94224-0.40907l0.01226-19.004c-0.0777-0.81181-1.3448-0.31515-0.79765-0.19045 0.01711 0.04173 0.05817 0.0446 0.05769 0.29863z"/>
                    <path d="m43.624 59.721-0.0064 1.2134c-8.47e-4 0.31458 0.87142 0.33398 0.86187 8.62e-4l0.0015-1.2039c-0.0072-0.36259-0.86391-0.31384-0.85696-0.01035z" display="none"/>
                </g>
            </g>
            <g transform="matrix(1.0786 0 0 1.1132 -10.635 -4.6841)">
                <path d="m34.916 38.634c-0.44251 0.0014-0.59914 0.10758-0.60883 0.57277l-0.02028 20.065c-0.0099 0.15668 0.04932 0.29607 0.28774 0.39068l1.153 0.06972c0.28827-0.07859 0.43488-0.43505 0.43488-0.43505l-0.063945-18.942c0.03903-0.80121 2.5801-0.78222 2.5955 0.0063l0.08629 19.023c0.02454 0.28118 0.13605 0.29899 0.25233 0.30252l1.0619 0.0092c0.20914 0.0025 0.254-0.13488 0.2788-0.28926l-0.0083-20.201c-0.01834-0.45664-0.32832-0.5545-0.75012-0.51457zm0.31965 15.306-0.0034 4.7921c2.39e-4 0.3154-0.63396 0.47842-0.67415-0.02079l0.0049-4.7278c0.22761-0.07646 0.43505-0.05928 0.67267-0.04353z" fill="#f4edd6"/>
                <g fill="#100f22">
                    <path d="m33.051 47.463c-0.40139 0.16673-0.38357 1.4175 0.08774 1.394 0.11616 0.0503 0.95161 0.05487 0.84943-0.01248l-0.03369-1.3985c-0.43965-0.03426-0.46809-0.04111-0.90348 0.01702z" display="none"/>
                    <path d="m38.728 39.699c0.18181 0.15203 0.21013 0.15824 0.25621 0.59308 9e-3 0.10095 0.0056 17.665 0.0095 18.039 0.01188 0.61693 0.60127 0.86843 0.65317 0.09825l0.01117-18.241c-0.05481-0.83525-0.65636-0.70683-0.93002-0.48925z"/>
                    <path d="m34.576 39.238-0.02484 14.923c0.01104 0.45748 0.75104 0.29828 0.68051 0.01063l0.02866-14.886c-0.01525-0.47491-0.72023-0.38454-0.68431-0.04819z" fill-opacity=".99259"/>
                </g>
                <path d="m33.199 47.204c-0.87735-0.02224-0.59052 1.9399-0.0577 1.9177l7.098-0.04677 0.0577-2.058z" fill="#f4edd6"/>
            </g>
            <path d="m36.573 47.201 2.2217-0.10616v2.1099l-2.2334-0.01327z"/>
        </g>
        <g transform="matrix(1.0376 -.003258 .070779 .91415 -1.9977 2.8296)" fill="#f4edd6" stroke-opacity=".26269">
            <path d="m21.496 25.918-3.0168-7.3773c0.5667-0.27721 1.7188-0.27585 3.8133 1.631-0.07695-2.4671 0.55976-3.3472 1.1826-3.7639l2.7755 7.0762c-0.8548 1.6402-2.2327 2.7269-4.7545 2.434z" fill="#e90000" fill-opacity=".584" stroke-width=".19233"/>
            <g stroke-width=".175">
                <path d="m21.653 25.549-2.7989-6.5831c0.52577-0.24736 1.5947-0.24616 3.5378 1.4554-0.0714-2.2015 0.51934-2.9869 1.0972-3.3587l2.575 6.3144c-0.79307 1.4637-2.0715 2.4334-4.4111 2.172z" fill="#000"/>
                <path d="m21.973 23.284c-0.01082-0.4251 1.0975-1.8915 2.8863-1.2219-0.87472 1.3592-1.3731 1.7819-2.8863 1.2219z" fill="#b52a2f"/>
                <path d="m23.053 22.143c-0.1131 0.09349 0.08202 0.37887 0.17416 0.65708 0.21353 0.47672 0.31146 0.47899 0.40374 0.43541 0.08662-0.12334 0.06521-0.27294-0.10292-0.56999-0.3296-0.70298-0.33477-0.5682-0.47499-0.52249z" fill="#000"/>
            </g>
        </g>
        <g>
            <g stroke="#000">
                <path d="m20.369 29.224c0.77441-1.2469 1.8168-1.4533 2.8874-1.7999-0.44117-0.59985 0.12391-1.3788 0.68734-1.9787 0.55094-0.39512 1.1946-0.60487 2.2474 0.0037 0.56494-1.5305 1.7067-3.3726 3.5909-1.1636 2.0251-2.399 2.3681 0.26865 2.2246 0.90839 1.056-0.26314 1.6612-0.0697 2.5974 0.35376l1.5279 0.51566c0.79137 0.289 4.4461 2.2051 2.8462 4.0016 2.3884 2.4902 2.213 7.6918 0.28329 7.1541-1.4519 1.9607-3.3852 2.8296-5.8699 2.7099-0.33498 0.86298-1.6727 1.6188-4.0634 1.8655-1.0529 1.3689-4.7061 1.409-5.9909 0.0607-2.6386-0.37264-4.3091-0.21686-4.4351-3.6479-0.8546-1.4388-1.0824-2.6286-0.91926-3.9879-1.9252-3.5963 1.4342-5.0686 2.3861-4.9953z" fill="#f4edd6" image-rendering="auto" stroke-width=".26458"/>
                <path d="m19.567 33.678 2.1565 4.8913c0.84602 1.1051 2.4126 0.8959 3.9266 0.66499 2.3979-0.4459 4.3254-1.1053 6.0006-1.9017 1.6473-0.78314 3.0507-1.6987 4.4176-2.674 0.9927-0.74721 0.60996-2.4081 0.0514-4.0255-0.31941-0.92493-0.69632-1.8357-0.9064-2.5532-0.75923-0.70594-1.0292-0.4961-1.5041-0.72832l-2.0757-0.9463c-1.1017 3.7475-3.4007 4.0742-4.7097 2.2279-0.75051 2.0222-1.9521 1.3962-2.952 0.15131-1.4151 0.1377-2.7454 0.47888-3.8633 1.33-0.6177 0.96907-0.5806 2.2363-0.54151 3.5636z" fill="#44384a" stroke-width=".265"/>
                <path d="m31.905 29.524c-0.57139-1.2895-0.689-2.4579-0.21014-3.4673 1.7056-3.8469 5.4838-1.3218 5.7 1.471 0.10819 1.5529-0.46963 3.1224-1.5761 4.0189-1.8204 0.90708-3.4576-1.1511-3.9139-2.0226z" fill="#fefefe" stroke-width=".31087"/>
            </g>
            <path d="m31.661 26.534c0.19995 3.1268 3.1975 5.5628 4.7863 4.1121-0.93976 1.6387-2.4835 0.94908-3.2637 0.299-0.867-0.8923-2.0271-2.244-1.5226-4.4111z" fill="#9a3f62"/>
            <path d="m35.86 25.641c0.04813-0.7572-0.7571-0.57804-0.94203-0.17777-0.21945 0.66826 0.63371 1.3784 0.94203 0.17777z" stroke="#000" stroke-width=".165"/>
            <path d="m22.207 36.392c2.5868-0.25487 2.9592-3.4176 2.3427-5.0973-0.32022-1.087-1.493-2.4268-2.4971-2.4714-1.0914-0.17567-2.0573 0.10052-2.8061 1.1585-0.86508 1.4339-0.97276 2.7009-0.36042 4.0675 0.28653 0.92122 1.8333 2.3427 3.3209 2.3427z" fill="#fefefe" stroke="#000" stroke-width=".30467"/>
        </g>
        <path d="m19.159 31.906c-0.42162-0.42166 0.14023-0.98435 0.61076-0.40658 0.3487 0.46874-0.32349 0.86537-0.61076 0.40658z" fill-opacity=".99702" stroke="#000" stroke-width=".165"/>
        <path d="m23.511 29.842c0.20152 0.56165 0.51576 1.1233 0.60457 1.685 0.09163 0.40305 0.07686 0.80609 0.08957 1.2091-0.09515 0.46088 0.0071 0.72434-0.31348 1.4107-0.24433 0.43562-0.35394 0.7129-0.77442 1.0694-0.29258 0.20998-0.55462 0.42664-1.1736 0.56522-0.27202 0.06164-0.53987 0.13022-0.87327 0.08956-0.31788-0.08313-0.45276-0.18289-0.66767-0.27537 0.25284 0.22287 0.87725 0.51078 1.1933 0.57007 0.32558 0.10559 0.72543 0.07868 0.87575 0.03304 0.49348-0.06444 0.76871-0.26388 1.101-0.47158 0.2815-0.25371 0.5154-0.57481 0.67174-0.93388 0.07278-0.06363 0.32533-0.799 0.35283-1.1985 0.08173-0.33772 0.05711-0.85459 0.04445-1.2112-0.06195-0.52359-0.16502-1.0677-0.49261-1.7241-0.19261-0.27578-0.36109-0.55559-0.63816-0.8173z" fill="#9a3f62"/>
        <path d="m26.832 37.282c-0.67617-0.38713-0.7196-0.69637-0.69414-1.142 0.12111-0.79863 0.51332-1.5973 1.0524-2.3959 0.99477-0.90569 1.931-1.5118 2.8661-1.7017 2.5669 0.39299 3.1793 0.90094 3.7618 1.4107 0.59646 0.94044-1.1318 2.1339-2.4183 2.8213-1.5505 0.78135-3.077 1.1808-4.5679 1.0076z" stroke="#000" stroke-width=".265"/>
        <path d="m30.191 34.058c0.24881-0.39816 1.2746-0.80263 1.7056-0.94044 0.66085-0.16891 1.7724 0.11261 1.6531 0.67943-0.16426 0.60569-0.88257 1.4808-2.3418 2.2287-2.1208 1.113-1.8339-0.84867-1.0169-1.9677z" fill="#b52a2f" fill-opacity=".99702"/>
        <path d="m33.218 33.281c0.03494 0.1081 0.09228 0.15202 0.1049 0.3325-0.0023 0.21369-0.11083 0.44926-0.19989 0.59374-0.25535 0.42263-0.67033 0.73884-1.0529 1.0767-0.42335 0.33574-0.98329 0.61684-1.5121 0.9104l-0.54228 0.1425c0.10222 0.02958 0.22088 0.01528 0.33843 4e-3 0.21835-0.03831 0.3265-0.07892 0.47301-0.13854 0.10324-0.03589 0.96879-0.40166 1.7496-1.0925 0.38422-0.31297 0.71464-0.70458 0.84707-0.98166 0.41644-0.69877-0.31035-0.9001-0.20583-0.84707z" fill="#812a2f"/>
        <path d="m26.457 35.197 4.2274-2.9925-0.66499-0.1425c-0.48164-0.0089-1.8782 0.77952-2.8183 1.6941-0.38838 0.49083-0.50943 0.94999-0.74416 1.4408z" fill="#fff" stroke="#000" stroke-width=".165"/>
        <g>
            <path d="m25.985 36.152c-0.0011 0.0045-0.0052 0.0213-0.01029 0.04314-0.02849 0.12296-0.07042 0.32795-0.10382 0.69579-0.02731 0.31187-0.03113 0.56175-0.03159 0.69626a0.11083 0.11083 90 0 0 0.22166 7.5e-4c4.43e-4 -0.13094 0.0042-0.37414 0.03072-0.67732 0.03239-0.3567 0.07261-0.55166 0.09897-0.66544 0.0047-0.02044 0.0086-0.03614 0.0096-0.04034a0.11083 0.11083 90 0 0-0.21527-0.05284z"/>
            <path d="m21.564 46.236 2.8443 0.62838 16.169-5.8398c2.4781-1.1503 4.7732-2.4058 5.3179-5.1937 0.71131 1.7327 0.42944 3.0037-2.9884 4.8179l-6.2625 2.6664c0.04927 1.8996-2.4642 4.2502-5.4642 1.9045-1.8636 1.6754-12.777 4.6439-9.6166 1.0163z" fill-opacity=".408"/>
            <path d="m33.557 33.351c0.07423 0.05391 0.2707 0.19974 0.44703 0.33045 0.04898 0.03615 0.08792 0.06365 0.11797 0.08439 0.04072 0.02811 0.07194 0.0485 0.08915 0.05961a0.11083 0.11083 90 0 0 0.12029-0.18618c-0.01595-0.0103-0.04519-0.0294-0.08352-0.05585-0.02827-0.01952-0.0653-0.04565-0.11207-0.08017-0.17535-0.12999-0.37344-0.27701-0.44858-0.33159a0.11083 0.11083 90 0 0-0.13027 0.17935z"/>
        </g>
        <g transform="translate(4.3066 -.38)">
            <path d="m27.138 41.917c-0.69851 0.3539-1.3603 0.60177-0.98522 2.8213 0.53343 2.3242 3.2162 1.5295 4.0621 1.0802 1.1165-0.54949 1.6231-1.3449 1.3502-2.5092-0.17356-0.64294-0.94679-2.7429-4.4271-1.3924z" fill="#c2b245" stroke="#000" stroke-width=".175"/>
            <path transform="translate(-4.3066 .38)" d="m30.548 42.445c-0.04307 0.4059-0.28027 2.0874 0.48578 2.8061 0.29974 0.22432 0.63158 0.30633 1.8415 0.22286 1.1155-0.77074 0.99575-1.9248 0.79324-2.6246 0.41686-0.11429 0.41149 2.1258 0.54454 2.1021 0.628-0.11186 1.1606-0.66932 1.1709-1.2089 0.33439-1.9578-0.57019-2.3374-1.3696-2.5468-2.09 0.0072-3.4331 0.75482-3.4663 1.2492z" fill="#e6d229"/>
            <path d="m26.482 43.326c0.37237 0.23487 1.4936-1.2332 0.81049-1.1793-0.30554-0.08398-1.1507 1.0813-0.81049 1.1793z" fill="#e6d2fc"/>
            <g>
                <path transform="matrix(-.98898 .14807 -.0046164 -.99999 0 0)" d="m-29.723-47.089a0.53179 0.38206 0 0 1-0.5165 0.3819 0.53179 0.38206 0 0 1-0.54619-0.35995 0.53179 0.38206 0 0 1 0.48511-0.40259 0.53179 0.38206 0 0 1 0.57407 0.33681l-0.52828 0.04383z" stroke="#000" stroke-width=".15145"/>
                <path d="m29.052 43.12c0.03395-0.0054 0.20454-0.02941 0.31322-0.05461 0.03655-0.0085 0.08141-0.02011 0.12933-0.03616 0.04958-0.01681 0.08596-0.0331 0.11224-0.04623a0.11083 0.11083 90 0 0-0.09909-0.19828c-0.01815 0.0091-0.04521 0.02133-0.08393 0.03446-0.03886 0.01302-0.07651 0.02284-0.1086 0.03028-0.09839 0.02281-0.25377 0.04467-0.29767 0.05158a0.11083 0.11083 90 0 0 0.03451 0.21896z"/>
                <path d="m29.304 43.075c0.0028 0.0045 0.01743 0.02825 0.03546 0.05889 0.06985 0.11873 0.43814 0.7274 0.47349 1.6097 0.0088 0.2742-0.01237 0.58465-0.12433 0.87179-0.03103 0.07725-0.06902 0.15117-0.11547 0.21477-0.04874 0.06675-0.1037 0.11791-0.16542 0.153-0.03725 0.02085-0.0696 0.03053-0.08681 0.03497a0.10234 0.10234 90 0 0 0.05111 0.1982c0.0278-0.0072 0.07814-0.02235 0.13627-0.05489 0.09187-0.05221 0.16756-0.12482 0.23017-0.21057 0.05919-0.08106 0.10472-0.17112 0.14048-0.26016 0.12665-0.32481 0.14775-0.66667 0.13856-0.95448-0.03753-0.93677-0.42755-1.5803-0.50162-1.7062-0.01912-0.03251-0.03465-0.05766-0.03761-0.06247a0.10234 0.10234 90 0 0-0.17427 0.10736z"/>
                <path transform="matrix(.96672 -.25585 -.40352 -.91497 0 0)" d="m9.3173-49.44a0.49479 0.38459 0 0 1-0.48057 0.38443 0.49479 0.38459 0 0 1-0.50819-0.36234 0.49479 0.38459 0 0 1 0.45136-0.40526 0.49479 0.38459 0 0 1 0.53413 0.33904l-0.49152 0.04412z" stroke="#000" stroke-width=".14657"/>
            </g>
        </g>
        <g transform="rotate(3.4035 22.311 36.422)">
            <path d="m28.894 57.041c-0.02937 0.01944-0.12166 0.08047-0.20382 0.15864-0.03349 0.03187-0.07128 0.07199-0.10631 0.12011-0.01786 0.02454-0.03747 0.05451-0.0558 0.08959-0.01938 0.03723-0.04096 0.09203-0.04498 0.15446-0.0017 0.02626-3.11e-4 0.05492 0.0066 0.08418 0.0064 0.02703 0.01755 0.05488 0.03544 0.08133 0.01826 0.02665 0.04031 0.04935 0.06564 0.0686 0.02395 0.01819 0.05036 0.03296 0.07838 0.04486 0.05264 0.02236 0.11019 0.03433 0.16622 0.04053 0.10777 0.01013 0.21559 0.0033 0.32468-0.01498 0.10409-0.01741 0.20685-0.04474 0.30917-0.07589 0.44108-0.14433 0.91349-0.3026 1.3477-0.5364 0.09274-0.05154 0.18702-0.10711 0.27584-0.17098 0.0884-0.06356 0.17213-0.13584 0.24428-0.22152 0.04374-0.05212 0.08213-0.11302 0.10685-0.17932 0.01245-0.03339 0.02148-0.06828 0.02591-0.10416 0.0045-0.03614 0.0042-0.07314-0.0018-0.1104-0.01226-0.08011-0.03772-0.16113-0.07809-0.2332-0.02058-0.03673-0.04505-0.07117-0.07366-0.10208-0.02908-0.03141-0.0623-0.059-0.09977-0.08155-0.03781-0.02309-0.07772-0.04009-0.1181-0.05214-0.04121-0.0123-0.08304-0.01947-0.12425-0.0229-0.08535-0.0071-0.17021 0.0017-0.2456 0.01621-0.14207 0.02863-0.27382 0.0763-0.39328 0.1296-0.13056 0.05826-0.2544 0.12697-0.36197 0.18966-0.09433 0.05584-0.17427 0.1076-0.22545 0.1414a0.052525 0.052525 90 0 0 0.05789 0.08766c0.05039-0.03327 0.12876-0.08402 0.22076-0.13848 0.1061-0.06183 0.22614-0.12834 0.35157-0.18431 0.11467-0.05117 0.23885-0.09588 0.37079-0.12247 0.06882-0.01326 0.14361-0.02066 0.21658-0.01459 0.03505 0.0029 0.06962 0.0089 0.10293 0.01888 0.03257 0.0097 0.06403 0.02321 0.09367 0.04131 0.02875 0.01731 0.05435 0.03847 0.07714 0.06309 0.02246 0.02426 0.04217 0.05184 0.05909 0.08205 0.03334 0.05951 0.05525 0.12817 0.06597 0.19817 0.0044 0.0272 0.0046 0.05421 0.0013 0.08121-0.0033 0.02687-0.01018 0.05376-0.02008 0.08033-0.01977 0.05302-0.0513 0.10371-0.08883 0.14842-0.06509 0.07729-0.1418 0.14386-0.2252 0.20383-0.08395 0.06036-0.17413 0.11365-0.26493 0.16412-0.42418 0.22841-0.88806 0.38414-1.3289 0.52838-0.09915 0.03018-0.19708 0.05609-0.29487 0.07245-0.10228 0.01711-0.20076 0.02309-0.29665 0.01409-0.04892-0.0054-0.09566-0.01565-0.13585-0.03272-0.02116-9e-3 -0.0398-0.01958-0.0559-0.03181-0.01692-0.01286-0.031-0.0275-0.04235-0.04407-0.0099-0.01459-0.01626-0.03033-0.02002-0.0463-0.0041-0.01744-0.0051-0.03551-4e-3 -0.05335 0.0028-0.04322 0.01815-0.08355 0.03329-0.11263 0.01545-0.02957 0.03214-0.05513 0.04759-0.07634 0.03032-0.04165 0.06351-0.07702 0.0938-0.10584 0.07479-0.07116 0.16012-0.12778 0.18939-0.14715a0.052525 0.052525 90 0 0-0.05798-0.0876z"/>
            <path d="m25.26 59.181c0.0309-0.0059 0.11667-0.0242 0.20365-0.08232 0.02109-0.01409 0.04351-0.03137 0.06547-0.05236 0.02715-0.02595 0.06028-0.06395 0.08665-0.11567 0.0304-0.05707 0.05028-0.13073 0.04615-0.21443-0.0033-0.06707-0.02238-0.1406-0.06335-0.20845-0.0412-0.07024-0.09936-0.13067-0.16988-0.18025-0.06443-0.0453-0.13776-0.08051-0.21461-0.10623-0.09096-0.02891-0.17812-0.04774-0.27211-0.0703-0.19852-0.04442-0.41779-0.08351-0.64029-0.06826-0.06825 0.0052-0.14007 0.01642-0.20952 0.03892-0.06921 0.02242-0.13714 0.0564-0.19621 0.1077-0.04984 0.0425-0.08759 0.09526-0.11451 0.15146-0.02712 0.05663-0.04351 0.11726-0.05099 0.17668-0.01157 0.07813-0.01749 0.16118-0.01191 0.24383 0.0057 0.08499 0.02362 0.16916 0.05936 0.24848 0.02758 0.06249 0.06804 0.11679 0.11545 0.16074 0.04988 0.04624 0.10754 0.08112 0.16796 0.10362 0.08286 0.03144 0.16704 0.04398 0.24479 0.04713 0.08524 0.0035 0.1681-0.0042 0.23924-0.01405 0.05373-0.0077 0.09945-0.01677 0.12876-0.02299a0.077303 0.077303 90 0 0-0.03209-0.15124c-0.02739 0.0058-0.06944 0.01417-0.11816 0.02112-0.06608 0.0091-0.13896 0.01562-0.2115 0.01268-0.06601-0.0027-0.13289-0.01318-0.19665-0.03737-0.0422-0.01572-0.08242-0.03999-0.11724-0.07228-0.03304-0.03063-0.06067-0.068-0.07936-0.11034-0.02702-0.05996-0.04156-0.12552-0.04631-0.19592-0.0046-0.06869 1.57e-4 -0.14026 0.01083-0.21245 0.0059-0.04659 0.01813-0.09091 0.03726-0.13087 0.01893-0.03952 0.04423-0.07403 0.07591-0.10105 0.04064-0.03528 0.08897-0.0603 0.14301-0.0778 0.05449-0.01765 0.11353-0.02725 0.17306-0.0318 0.19876-0.01363 0.39985 0.02119 0.59417 0.06466 0.09713 0.02333 0.17617 0.04033 0.2591 0.06668 0.06384 0.02137 0.12328 0.05033 0.17363 0.08573 0.05482 0.03854 0.09683 0.08322 0.12595 0.13285 0.027 0.04472 0.03961 0.09294 0.04178 0.13698 0.0027 0.05454-0.0103 0.10057-0.02883 0.13537-0.01712 0.03355-0.03818 0.05796-0.05637 0.07534-0.01464 0.01399-0.02985 0.02576-0.04455 0.03558-0.06152 0.04111-0.12342 0.05458-0.14659 0.05898a0.077303 0.077303 90 0 0 0.02884 0.15189z"/>
            <path d="m24.303 58.894c0.03616-0.02616 0.09963-0.06925 0.19887-0.11986 0.0025-0.0013 5e-3 -0.0025 0.0076-0.0038 0.04503-0.02206 0.11989-0.0579 0.19601-0.07118 0.0182-0.0035 0.03578-0.0043 0.05181-0.0017 0.0076 0.0013 0.01469 0.0033 0.02108 6e-3 0.0063 0.0027 0.01206 0.0061 0.01724 0.01037 0.0278 0.0172 0.05091 0.03003 0.07566 0.04048 0.02644 0.01117 0.054 0.01931 0.08304 0.02235 0.0073 4.02e-4 0.01061 5.35e-4 0.01244 6.09e-4a0.052587 0.052587 90 0 0 0.0042-0.10509c-0.0018-7.4e-5 -0.0051-2.07e-4 -0.0091-3.66e-4 -0.0131-0.0015-0.03048-0.0063-0.04971-0.01439-0.01829-0.0077-0.03667-0.01777-0.05642-0.0295-0.0069-0.0064-0.02122-0.01483-0.03609-0.02118-0.01494-0.0064-0.0302-0.01056-0.04522-0.01304-0.03095-0.0051-0.06142-0.0032-0.08803 2e-3 -0.09184 0.01601-0.17926 0.05862-0.22378 0.08044-0.0033 0.0016-0.0059 3e-3 -0.0085 0.0043-0.10494 0.05351-0.17305 0.09962-0.21274 0.12834a0.052587 0.052587 90 0 0 0.06165 0.08521z"/>
            <path d="m26.081 57.947c-0.02247 0.01984-0.06556 0.06336-0.09235 0.13424-0.01229 0.03251-0.02194 0.07325-0.02142 0.11922 1.52e-4 0.01351 0.0012 0.02848 0.0037 0.0445 0.0054 0.03939 0.02133 0.08783 0.05529 0.13336 0.02638 0.03537 0.06469 0.06993 0.11534 0.09126 0.04031 0.0177 0.08492 0.026 0.13113 0.02611 0.04201 1.01e-4 0.08433-0.0066 0.12513-0.01778 0.06077-0.01463 0.12936-0.03247 0.19643-0.0565 0.06463-0.02315 0.13057-0.05295 0.19267-0.09421 0.03795-0.02527 0.07524-0.0569 0.10642-0.09512 0.03068-0.0376 0.05595-0.08222 0.06915-0.13352 0.01082-0.03932 0.01308-0.0799 0.01008-0.11853-3e-3 -0.03853-0.01121-0.07569-0.02136-0.10985-0.01167-0.04041-0.02626-0.08267-0.046-0.12319-0.02021-0.04148-0.04586-0.08124-0.07953-0.11598-0.02621-0.02765-0.05857-0.04921-0.09318-0.06301-0.03642-0.01452-0.0756-0.02058-0.1144-0.01682-0.05074 0.0046-0.09608 0.02135-0.13423 0.04091-0.04159 0.02132-0.07853 0.04801-0.10797 0.07105-0.02573 0.02044-0.04662 0.03932-0.05935 0.05112a0.064184 0.064184 90 0 0 0.08727 0.09414c0.01149-0.01065 0.02974-0.02712 0.05155-0.04446 0.02645-0.02069 0.05601-0.04171 0.08705-0.05763 0.02827-0.01449 0.05746-0.02462 0.0876-0.02733 0.01776-0.0017 0.03644 8.75e-4 0.05492 0.0082 0.01765 7e-3 0.03437 0.01817 0.04804 0.03259 0.02272 0.02346 0.04114 0.05123 0.0568 0.08339 0.01539 0.0316 0.02759 0.06629 0.03821 0.10305 0.0085 0.02869 0.01447 0.05664 0.01656 0.08368 0.0021 0.02693 2.98e-4 0.05217-0.0061 0.07561-8e-3 0.03121-0.02341 0.05946-0.04456 0.08538-0.02161 0.02648-0.0487 0.04984-0.07805 0.06939-0.05098 0.03387-0.10686 0.05946-0.16487 0.08024-0.06043 0.02165-0.12363 0.03821-0.1852 0.05306-0.03368 0.0092-0.06435 0.01376-0.09277 0.0137-0.03098-7.4e-5 -0.05779-0.0056-0.08074-0.01567-0.02706-0.0114-0.04805-0.02985-0.06314-0.05008-0.01934-0.02592-0.02818-0.05325-0.0312-0.07534-0.0017-0.01054-0.0023-0.01924-0.0024-0.0272-3.06e-4 -0.0272 0.0054-0.052 0.01314-0.07239 0.01678-0.04441 0.04375-0.07149 0.05724-0.0834a0.064184 0.064184 90 0 0-0.08497-0.09622z"/>
            <path d="m28.973 57.555c0.02864 0.0013 0.1008 0.0035 0.20025-0.01538 0.06009-0.0114 0.14288-0.03261 0.25115-0.07709 0.10023-0.04299 0.24064-0.11256 0.35084-0.22718 0.0081-0.01119 0.01195-0.0155 0.01673-0.01961 0.0047-4e-3 0.01037-0.0079 0.01736-0.01189 0.01337-0.0076 0.03115-0.01481 0.05105-0.02427 0.11281-0.05191 0.23794-0.0798 0.36645-0.08799 0.05406-0.0041 0.11148-0.0069 0.16781-0.01583 0.05848-0.0092 0.11607-0.02499 0.16971-0.05516 0.06445-0.03585 0.11684-0.08372 0.16025-0.13311 0.04691-0.05338 0.08635-0.11219 0.11866-0.16324 0.01686-0.02706 0.03037-0.05031 0.03808-0.06373a0.042349 0.042349 90 0 0-0.07346-0.04216c-0.0074 0.01296-0.02039 0.03525-0.03634 0.06085-0.03146 0.04971-0.06809 0.10406-0.11055 0.15237-0.03916 0.04456-0.08425 0.08522-0.13798 0.11511-0.04212 0.02369-0.0891 0.03713-0.14158 0.04542-0.05186 0.0082-0.1039 0.01072-0.16048 0.015-0.13651 0.0087-0.27212 0.03856-0.39645 0.09577-0.01573 0.0075-0.03806 0.01661-0.05694 0.02731-0.01042 0.0059-0.02092 0.01284-0.03082 0.02136-0.01032 0.0089-0.01972 0.01925-0.02763 0.03155-0.09305 0.09565-0.22065 0.15982-0.31749 0.20136-0.10211 0.04195-0.17939 0.06158-0.23415 0.07197-0.09062 0.01719-0.15561 0.01512-0.18062 0.01398a0.042349 0.042349 90 0 0-0.0038 0.08461z"/>
            <g transform="rotate(-15.301 14.529 19.538)">
                <path d="m28.894 57.041c-0.02937 0.01944-0.12166 0.08047-0.20382 0.15864-0.03349 0.03187-0.07128 0.07199-0.10631 0.12011-0.01786 0.02454-0.03747 0.05451-0.0558 0.08959-0.01938 0.03723-0.04096 0.09203-0.04498 0.15446-0.0017 0.02626-3.11e-4 0.05492 0.0066 0.08418 0.0064 0.02703 0.01755 0.05488 0.03544 0.08133 0.01826 0.02665 0.04031 0.04935 0.06564 0.0686 0.02395 0.01819 0.05036 0.03296 0.07838 0.04486 0.05264 0.02236 0.11019 0.03433 0.16622 0.04053 0.10777 0.01013 0.21559 0.0033 0.32468-0.01498 0.10409-0.01741 0.20685-0.04474 0.30917-0.07589 0.44108-0.14433 0.91349-0.3026 1.3477-0.5364 0.09274-0.05154 0.18702-0.10711 0.27584-0.17098 0.0884-0.06356 0.17213-0.13584 0.24428-0.22152 0.04374-0.05212 0.08213-0.11302 0.10685-0.17932 0.01245-0.03339 0.02148-0.06828 0.02591-0.10416 0.0045-0.03614 0.0042-0.07314-0.0018-0.1104-0.01226-0.08011-0.03772-0.16113-0.07809-0.2332-0.02058-0.03673-0.04505-0.07117-0.07366-0.10208-0.02908-0.03141-0.0623-0.059-0.09977-0.08155-0.03781-0.02309-0.07772-0.04009-0.1181-0.05214-0.04121-0.0123-0.08304-0.01947-0.12425-0.0229-0.08535-0.0071-0.17021 0.0017-0.2456 0.01621-0.14207 0.02863-0.27382 0.0763-0.39328 0.1296-0.13056 0.05826-0.2544 0.12697-0.36197 0.18966-0.09433 0.05584-0.17427 0.1076-0.22545 0.1414a0.052525 0.052525 90 0 0 0.05789 0.08766c0.05039-0.03327 0.12876-0.08402 0.22076-0.13848 0.1061-0.06183 0.22614-0.12834 0.35157-0.18431 0.11467-0.05117 0.23885-0.09588 0.37079-0.12247 0.06882-0.01326 0.14361-0.02066 0.21658-0.01459 0.03505 0.0029 0.06962 0.0089 0.10293 0.01888 0.03257 0.0097 0.06403 0.02321 0.09367 0.04131 0.02875 0.01731 0.05435 0.03847 0.07714 0.06309 0.02246 0.02426 0.04217 0.05184 0.05909 0.08205 0.03334 0.05951 0.05525 0.12817 0.06597 0.19817 0.0044 0.0272 0.0046 0.05421 0.0013 0.08121-0.0033 0.02687-0.01018 0.05376-0.02008 0.08033-0.01977 0.05302-0.0513 0.10371-0.08883 0.14842-0.06509 0.07729-0.1418 0.14386-0.2252 0.20383-0.08395 0.06036-0.17413 0.11365-0.26493 0.16412-0.42418 0.22841-0.88806 0.38414-1.3289 0.52838-0.09915 0.03018-0.19708 0.05609-0.29487 0.07245-0.10228 0.01711-0.20076 0.02309-0.29665 0.01409-0.04892-0.0054-0.09566-0.01565-0.13585-0.03272-0.02116-9e-3 -0.0398-0.01958-0.0559-0.03181-0.01692-0.01286-0.031-0.0275-0.04235-0.04407-0.0099-0.01459-0.01626-0.03033-0.02002-0.0463-0.0041-0.01744-0.0051-0.03551-4e-3 -0.05335 0.0028-0.04322 0.01815-0.08355 0.03329-0.11263 0.01545-0.02957 0.03214-0.05513 0.04759-0.07634 0.03032-0.04165 0.06351-0.07702 0.0938-0.10584 0.07479-0.07116 0.16012-0.12778 0.18939-0.14715a0.052525 0.052525 90 0 0-0.05798-0.0876z"/>
                <path d="m25.26 59.181c0.0309-0.0059 0.11667-0.0242 0.20365-0.08232 0.02109-0.01409 0.04351-0.03137 0.06547-0.05236 0.02715-0.02595 0.06028-0.06395 0.08665-0.11567 0.0304-0.05707 0.05028-0.13073 0.04615-0.21443-0.0033-0.06707-0.02238-0.1406-0.06335-0.20845-0.0412-0.07024-0.09936-0.13067-0.16988-0.18025-0.06443-0.0453-0.13776-0.08051-0.21461-0.10623-0.09096-0.02891-0.17812-0.04774-0.27211-0.0703-0.19852-0.04442-0.41779-0.08351-0.64029-0.06826-0.06825 0.0052-0.14007 0.01642-0.20952 0.03892-0.06921 0.02242-0.13714 0.0564-0.19621 0.1077-0.04984 0.0425-0.08759 0.09526-0.11451 0.15146-0.02712 0.05663-0.04351 0.11726-0.05099 0.17668-0.01157 0.07813-0.01749 0.16118-0.01191 0.24383 0.0057 0.08499 0.02362 0.16916 0.05936 0.24848 0.02758 0.06249 0.06804 0.11679 0.11545 0.16074 0.04988 0.04624 0.10754 0.08112 0.16796 0.10362 0.08286 0.03144 0.16704 0.04398 0.24479 0.04713 0.08524 0.0035 0.1681-0.0042 0.23924-0.01405 0.05373-0.0077 0.09945-0.01677 0.12876-0.02299a0.077303 0.077303 90 0 0-0.03209-0.15124c-0.02739 0.0058-0.06944 0.01417-0.11816 0.02112-0.06608 0.0091-0.13896 0.01562-0.2115 0.01268-0.06601-0.0027-0.13289-0.01318-0.19665-0.03737-0.0422-0.01572-0.08242-0.03999-0.11724-0.07228-0.03304-0.03063-0.06067-0.068-0.07936-0.11034-0.02702-0.05996-0.04156-0.12552-0.04631-0.19592-0.0046-0.06869 1.57e-4 -0.14026 0.01083-0.21245 0.0059-0.04659 0.01813-0.09091 0.03726-0.13087 0.01893-0.03952 0.04423-0.07403 0.07591-0.10105 0.04064-0.03528 0.08897-0.0603 0.14301-0.0778 0.05449-0.01765 0.11353-0.02725 0.17306-0.0318 0.19876-0.01363 0.39985 0.02119 0.59417 0.06466 0.09713 0.02333 0.17617 0.04033 0.2591 0.06668 0.06384 0.02137 0.12328 0.05033 0.17363 0.08573 0.05482 0.03854 0.09683 0.08322 0.12595 0.13285 0.027 0.04472 0.03961 0.09294 0.04178 0.13698 0.0027 0.05454-0.0103 0.10057-0.02883 0.13537-0.01712 0.03355-0.03818 0.05796-0.05637 0.07534-0.01464 0.01399-0.02985 0.02576-0.04455 0.03558-0.06152 0.04111-0.12342 0.05458-0.14659 0.05898a0.077303 0.077303 90 0 0 0.02884 0.15189z"/>
                <path d="m24.303 58.894c0.03616-0.02616 0.09963-0.06925 0.19887-0.11986 0.0025-0.0013 5e-3 -0.0025 0.0076-0.0038 0.04503-0.02206 0.11989-0.0579 0.19601-0.07118 0.0182-0.0035 0.03578-0.0043 0.05181-0.0017 0.0076 0.0013 0.01469 0.0033 0.02108 6e-3 0.0063 0.0027 0.01206 0.0061 0.01724 0.01037 0.0278 0.0172 0.05091 0.03003 0.07566 0.04048 0.02644 0.01117 0.054 0.01931 0.08304 0.02235 0.0073 4.02e-4 0.01061 5.35e-4 0.01244 6.09e-4a0.052587 0.052587 90 0 0 0.0042-0.10509c-0.0018-7.4e-5 -0.0051-2.07e-4 -0.0091-3.66e-4 -0.0131-0.0015-0.03048-0.0063-0.04971-0.01439-0.01829-0.0077-0.03667-0.01777-0.05642-0.0295-0.0069-0.0064-0.02122-0.01483-0.03609-0.02118-0.01494-0.0064-0.0302-0.01056-0.04522-0.01304-0.03095-0.0051-0.06142-0.0032-0.08803 2e-3 -0.09184 0.01601-0.17926 0.05862-0.22378 0.08044-0.0033 0.0016-0.0059 3e-3 -0.0085 0.0043-0.10494 0.05351-0.17305 0.09962-0.21274 0.12834a0.052587 0.052587 90 0 0 0.06165 0.08521z"/>
                <path d="m26.081 57.947c-0.02247 0.01984-0.06556 0.06336-0.09235 0.13424-0.01229 0.03251-0.02194 0.07325-0.02142 0.11922 1.52e-4 0.01351 0.0012 0.02848 0.0037 0.0445 0.0054 0.03939 0.02133 0.08783 0.05529 0.13336 0.02638 0.03537 0.06469 0.06993 0.11534 0.09126 0.04031 0.0177 0.08492 0.026 0.13113 0.02611 0.04201 1.01e-4 0.08433-0.0066 0.12513-0.01778 0.06077-0.01463 0.12936-0.03247 0.19643-0.0565 0.06463-0.02315 0.13057-0.05295 0.19267-0.09421 0.03795-0.02527 0.07524-0.0569 0.10642-0.09512 0.03068-0.0376 0.05595-0.08222 0.06915-0.13352 0.01082-0.03932 0.01308-0.0799 0.01008-0.11853-3e-3 -0.03853-0.01121-0.07569-0.02136-0.10985-0.01167-0.04041-0.02626-0.08267-0.046-0.12319-0.02021-0.04148-0.04586-0.08124-0.07953-0.11598-0.02621-0.02765-0.05857-0.04921-0.09318-0.06301-0.03642-0.01452-0.0756-0.02058-0.1144-0.01682-0.05074 0.0046-0.09608 0.02135-0.13423 0.04091-0.04159 0.02132-0.07853 0.04801-0.10797 0.07105-0.02573 0.02044-0.04662 0.03932-0.05935 0.05112a0.064184 0.064184 90 0 0 0.08727 0.09414c0.01149-0.01065 0.02974-0.02712 0.05155-0.04446 0.02645-0.02069 0.05601-0.04171 0.08705-0.05763 0.02827-0.01449 0.05746-0.02462 0.0876-0.02733 0.01776-0.0017 0.03644 8.75e-4 0.05492 0.0082 0.01765 7e-3 0.03437 0.01817 0.04804 0.03259 0.02272 0.02346 0.04114 0.05123 0.0568 0.08339 0.01539 0.0316 0.02759 0.06629 0.03821 0.10305 0.0085 0.02869 0.01447 0.05664 0.01656 0.08368 0.0021 0.02693 2.98e-4 0.05217-0.0061 0.07561-8e-3 0.03121-0.02341 0.05946-0.04456 0.08538-0.02161 0.02648-0.0487 0.04984-0.07805 0.06939-0.05098 0.03387-0.10686 0.05946-0.16487 0.08024-0.06043 0.02165-0.12363 0.03821-0.1852 0.05306-0.03368 0.0092-0.06435 0.01376-0.09277 0.0137-0.03098-7.4e-5 -0.05779-0.0056-0.08074-0.01567-0.02706-0.0114-0.04805-0.02985-0.06314-0.05008-0.01934-0.02592-0.02818-0.05325-0.0312-0.07534-0.0017-0.01054-0.0023-0.01924-0.0024-0.0272-3.06e-4 -0.0272 0.0054-0.052 0.01314-0.07239 0.01678-0.04441 0.04375-0.07149 0.05724-0.0834a0.064184 0.064184 90 0 0-0.08497-0.09622z"/>
                <path d="m28.973 57.555c0.02864 0.0013 0.1008 0.0035 0.20025-0.01538 0.06009-0.0114 0.14288-0.03261 0.25115-0.07709 0.10023-0.04299 0.24064-0.11256 0.35084-0.22718 0.0081-0.01119 0.01195-0.0155 0.01673-0.01961 0.0047-4e-3 0.01037-0.0079 0.01736-0.01189 0.01337-0.0076 0.03115-0.01481 0.05105-0.02427 0.11281-0.05191 0.23794-0.0798 0.36645-0.08799 0.05406-0.0041 0.11148-0.0069 0.16781-0.01583 0.05848-0.0092 0.11607-0.02499 0.16971-0.05516 0.06445-0.03585 0.11684-0.08372 0.16025-0.13311 0.04691-0.05338 0.08635-0.11219 0.11866-0.16324 0.01686-0.02706 0.03037-0.05031 0.03808-0.06373a0.042349 0.042349 90 0 0-0.07346-0.04216c-0.0074 0.01296-0.02039 0.03525-0.03634 0.06085-0.03146 0.04971-0.06809 0.10406-0.11055 0.15237-0.03916 0.04456-0.08425 0.08522-0.13798 0.11511-0.04212 0.02369-0.0891 0.03713-0.14158 0.04542-0.05186 0.0082-0.1039 0.01072-0.16048 0.015-0.13651 0.0087-0.27212 0.03856-0.39645 0.09577-0.01573 0.0075-0.03806 0.01661-0.05694 0.02731-0.01042 0.0059-0.02092 0.01284-0.03082 0.02136-0.01032 0.0089-0.01972 0.01925-0.02763 0.03155-0.09305 0.09565-0.22065 0.15982-0.31749 0.20136-0.10211 0.04195-0.17939 0.06158-0.23415 0.07197-0.09062 0.01719-0.15561 0.01512-0.18062 0.01398a0.042349 0.042349 90 0 0-0.0038 0.08461z"/>
            </g>
            <g transform="matrix(.85721 -.27563 .63853 .96126 -15.705 -1.0137)">
                <path d="m28.894 57.041c-0.02937 0.01944-0.12166 0.08047-0.20382 0.15864-0.03349 0.03187-0.07128 0.07199-0.10631 0.12011-0.01786 0.02454-0.03747 0.05451-0.0558 0.08959-0.01938 0.03723-0.04096 0.09203-0.04498 0.15446-0.0017 0.02626-3.11e-4 0.05492 0.0066 0.08418 0.0064 0.02703 0.01755 0.05488 0.03544 0.08133 0.01826 0.02665 0.04031 0.04935 0.06564 0.0686 0.02395 0.01819 0.05036 0.03296 0.07838 0.04486 0.05264 0.02236 0.11019 0.03433 0.16622 0.04053 0.10777 0.01013 0.21559 0.0033 0.32468-0.01498 0.10409-0.01741 0.20685-0.04474 0.30917-0.07589 0.44108-0.14433 0.91349-0.3026 1.3477-0.5364 0.09274-0.05154 0.18702-0.10711 0.27584-0.17098 0.0884-0.06356 0.17213-0.13584 0.24428-0.22152 0.04374-0.05212 0.08213-0.11302 0.10685-0.17932 0.01245-0.03339 0.02148-0.06828 0.02591-0.10416 0.0045-0.03614 0.0042-0.07314-0.0018-0.1104-0.01226-0.08011-0.03772-0.16113-0.07809-0.2332-0.02058-0.03673-0.04505-0.07117-0.07366-0.10208-0.02908-0.03141-0.0623-0.059-0.09977-0.08155-0.03781-0.02309-0.07772-0.04009-0.1181-0.05214-0.04121-0.0123-0.08304-0.01947-0.12425-0.0229-0.08535-0.0071-0.17021 0.0017-0.2456 0.01621-0.14207 0.02863-0.27382 0.0763-0.39328 0.1296-0.13056 0.05826-0.2544 0.12697-0.36197 0.18966-0.09433 0.05584-0.17427 0.1076-0.22545 0.1414a0.052525 0.052525 90 0 0 0.05789 0.08766c0.05039-0.03327 0.12876-0.08402 0.22076-0.13848 0.1061-0.06183 0.22614-0.12834 0.35157-0.18431 0.11467-0.05117 0.23885-0.09588 0.37079-0.12247 0.06882-0.01326 0.14361-0.02066 0.21658-0.01459 0.03505 0.0029 0.06962 0.0089 0.10293 0.01888 0.03257 0.0097 0.06403 0.02321 0.09367 0.04131 0.02875 0.01731 0.05435 0.03847 0.07714 0.06309 0.02246 0.02426 0.04217 0.05184 0.05909 0.08205 0.03334 0.05951 0.05525 0.12817 0.06597 0.19817 0.0044 0.0272 0.0046 0.05421 0.0013 0.08121-0.0033 0.02687-0.01018 0.05376-0.02008 0.08033-0.01977 0.05302-0.0513 0.10371-0.08883 0.14842-0.06509 0.07729-0.1418 0.14386-0.2252 0.20383-0.08395 0.06036-0.17413 0.11365-0.26493 0.16412-0.42418 0.22841-0.88806 0.38414-1.3289 0.52838-0.09915 0.03018-0.19708 0.05609-0.29487 0.07245-0.10228 0.01711-0.20076 0.02309-0.29665 0.01409-0.04892-0.0054-0.09566-0.01565-0.13585-0.03272-0.02116-9e-3 -0.0398-0.01958-0.0559-0.03181-0.01692-0.01286-0.031-0.0275-0.04235-0.04407-0.0099-0.01459-0.01626-0.03033-0.02002-0.0463-0.0041-0.01744-0.0051-0.03551-4e-3 -0.05335 0.0028-0.04322 0.01815-0.08355 0.03329-0.11263 0.01545-0.02957 0.03214-0.05513 0.04759-0.07634 0.03032-0.04165 0.06351-0.07702 0.0938-0.10584 0.07479-0.07116 0.16012-0.12778 0.18939-0.14715a0.052525 0.052525 90 0 0-0.05798-0.0876z"/>
                <path d="m25.26 59.181c0.0309-0.0059 0.11667-0.0242 0.20365-0.08232 0.02109-0.01409 0.04351-0.03137 0.06547-0.05236 0.02715-0.02595 0.06028-0.06395 0.08665-0.11567 0.0304-0.05707 0.05028-0.13073 0.04615-0.21443-0.0033-0.06707-0.02238-0.1406-0.06335-0.20845-0.0412-0.07024-0.09936-0.13067-0.16988-0.18025-0.06443-0.0453-0.13776-0.08051-0.21461-0.10623-0.09096-0.02891-0.17812-0.04774-0.27211-0.0703-0.19852-0.04442-0.41779-0.08351-0.64029-0.06826-0.06825 0.0052-0.14007 0.01642-0.20952 0.03892-0.06921 0.02242-0.13714 0.0564-0.19621 0.1077-0.04984 0.0425-0.08759 0.09526-0.11451 0.15146-0.02712 0.05663-0.04351 0.11726-0.05099 0.17668-0.01157 0.07813-0.01749 0.16118-0.01191 0.24383 0.0057 0.08499 0.02362 0.16916 0.05936 0.24848 0.02758 0.06249 0.06804 0.11679 0.11545 0.16074 0.04988 0.04624 0.10754 0.08112 0.16796 0.10362 0.08286 0.03144 0.16704 0.04398 0.24479 0.04713 0.08524 0.0035 0.1681-0.0042 0.23924-0.01405 0.05373-0.0077 0.09945-0.01677 0.12876-0.02299a0.077303 0.077303 90 0 0-0.03209-0.15124c-0.02739 0.0058-0.06944 0.01417-0.11816 0.02112-0.06608 0.0091-0.13896 0.01562-0.2115 0.01268-0.06601-0.0027-0.13289-0.01318-0.19665-0.03737-0.0422-0.01572-0.08242-0.03999-0.11724-0.07228-0.03304-0.03063-0.06067-0.068-0.07936-0.11034-0.02702-0.05996-0.04156-0.12552-0.04631-0.19592-0.0046-0.06869 1.57e-4 -0.14026 0.01083-0.21245 0.0059-0.04659 0.01813-0.09091 0.03726-0.13087 0.01893-0.03952 0.04423-0.07403 0.07591-0.10105 0.04064-0.03528 0.08897-0.0603 0.14301-0.0778 0.05449-0.01765 0.11353-0.02725 0.17306-0.0318 0.19876-0.01363 0.39985 0.02119 0.59417 0.06466 0.09713 0.02333 0.17617 0.04033 0.2591 0.06668 0.06384 0.02137 0.12328 0.05033 0.17363 0.08573 0.05482 0.03854 0.09683 0.08322 0.12595 0.13285 0.027 0.04472 0.03961 0.09294 0.04178 0.13698 0.0027 0.05454-0.0103 0.10057-0.02883 0.13537-0.01712 0.03355-0.03818 0.05796-0.05637 0.07534-0.01464 0.01399-0.02985 0.02576-0.04455 0.03558-0.06152 0.04111-0.12342 0.05458-0.14659 0.05898a0.077303 0.077303 90 0 0 0.02884 0.15189z"/>
                <path d="m24.303 58.894c0.03616-0.02616 0.09963-0.06925 0.19887-0.11986 0.0025-0.0013 5e-3 -0.0025 0.0076-0.0038 0.04503-0.02206 0.11989-0.0579 0.19601-0.07118 0.0182-0.0035 0.03578-0.0043 0.05181-0.0017 0.0076 0.0013 0.01469 0.0033 0.02108 6e-3 0.0063 0.0027 0.01206 0.0061 0.01724 0.01037 0.0278 0.0172 0.05091 0.03003 0.07566 0.04048 0.02644 0.01117 0.054 0.01931 0.08304 0.02235 0.0073 4.02e-4 0.01061 5.35e-4 0.01244 6.09e-4a0.052587 0.052587 90 0 0 0.0042-0.10509c-0.0018-7.4e-5 -0.0051-2.07e-4 -0.0091-3.66e-4 -0.0131-0.0015-0.03048-0.0063-0.04971-0.01439-0.01829-0.0077-0.03667-0.01777-0.05642-0.0295-0.0069-0.0064-0.02122-0.01483-0.03609-0.02118-0.01494-0.0064-0.0302-0.01056-0.04522-0.01304-0.03095-0.0051-0.06142-0.0032-0.08803 2e-3 -0.09184 0.01601-0.17926 0.05862-0.22378 0.08044-0.0033 0.0016-0.0059 3e-3 -0.0085 0.0043-0.10494 0.05351-0.17305 0.09962-0.21274 0.12834a0.052587 0.052587 90 0 0 0.06165 0.08521z"/>
                <path d="m26.081 57.947c-0.02247 0.01984-0.06556 0.06336-0.09235 0.13424-0.01229 0.03251-0.02194 0.07325-0.02142 0.11922 1.52e-4 0.01351 0.0012 0.02848 0.0037 0.0445 0.0054 0.03939 0.02133 0.08783 0.05529 0.13336 0.02638 0.03537 0.06469 0.06993 0.11534 0.09126 0.04031 0.0177 0.08492 0.026 0.13113 0.02611 0.04201 1.01e-4 0.08433-0.0066 0.12513-0.01778 0.06077-0.01463 0.12936-0.03247 0.19643-0.0565 0.06463-0.02315 0.13057-0.05295 0.19267-0.09421 0.03795-0.02527 0.07524-0.0569 0.10642-0.09512 0.03068-0.0376 0.05595-0.08222 0.06915-0.13352 0.01082-0.03932 0.01308-0.0799 0.01008-0.11853-3e-3 -0.03853-0.01121-0.07569-0.02136-0.10985-0.01167-0.04041-0.02626-0.08267-0.046-0.12319-0.02021-0.04148-0.04586-0.08124-0.07953-0.11598-0.02621-0.02765-0.05857-0.04921-0.09318-0.06301-0.03642-0.01452-0.0756-0.02058-0.1144-0.01682-0.05074 0.0046-0.09608 0.02135-0.13423 0.04091-0.04159 0.02132-0.07853 0.04801-0.10797 0.07105-0.02573 0.02044-0.04662 0.03932-0.05935 0.05112a0.064184 0.064184 90 0 0 0.08727 0.09414c0.01149-0.01065 0.02974-0.02712 0.05155-0.04446 0.02645-0.02069 0.05601-0.04171 0.08705-0.05763 0.02827-0.01449 0.05746-0.02462 0.0876-0.02733 0.01776-0.0017 0.03644 8.75e-4 0.05492 0.0082 0.01765 7e-3 0.03437 0.01817 0.04804 0.03259 0.02272 0.02346 0.04114 0.05123 0.0568 0.08339 0.01539 0.0316 0.02759 0.06629 0.03821 0.10305 0.0085 0.02869 0.01447 0.05664 0.01656 0.08368 0.0021 0.02693 2.98e-4 0.05217-0.0061 0.07561-8e-3 0.03121-0.02341 0.05946-0.04456 0.08538-0.02161 0.02648-0.0487 0.04984-0.07805 0.06939-0.05098 0.03387-0.10686 0.05946-0.16487 0.08024-0.06043 0.02165-0.12363 0.03821-0.1852 0.05306-0.03368 0.0092-0.06435 0.01376-0.09277 0.0137-0.03098-7.4e-5 -0.05779-0.0056-0.08074-0.01567-0.02706-0.0114-0.04805-0.02985-0.06314-0.05008-0.01934-0.02592-0.02818-0.05325-0.0312-0.07534-0.0017-0.01054-0.0023-0.01924-0.0024-0.0272-3.06e-4 -0.0272 0.0054-0.052 0.01314-0.07239 0.01678-0.04441 0.04375-0.07149 0.05724-0.0834a0.064184 0.064184 90 0 0-0.08497-0.09622z"/>
                <path d="m28.973 57.555c0.02864 0.0013 0.1008 0.0035 0.20025-0.01538 0.06009-0.0114 0.14288-0.03261 0.25115-0.07709 0.10023-0.04299 0.24064-0.11256 0.35084-0.22718 0.0081-0.01119 0.01195-0.0155 0.01673-0.01961 0.0047-4e-3 0.01037-0.0079 0.01736-0.01189 0.01337-0.0076 0.03115-0.01481 0.05105-0.02427 0.11281-0.05191 0.23794-0.0798 0.36645-0.08799 0.05406-0.0041 0.11148-0.0069 0.16781-0.01583 0.05848-0.0092 0.11607-0.02499 0.16971-0.05516 0.06445-0.03585 0.11684-0.08372 0.16025-0.13311 0.04691-0.05338 0.08635-0.11219 0.11866-0.16324 0.01686-0.02706 0.03037-0.05031 0.03808-0.06373a0.042349 0.042349 90 0 0-0.07346-0.04216c-0.0074 0.01296-0.02039 0.03525-0.03634 0.06085-0.03146 0.04971-0.06809 0.10406-0.11055 0.15237-0.03916 0.04456-0.08425 0.08522-0.13798 0.11511-0.04212 0.02369-0.0891 0.03713-0.14158 0.04542-0.05186 0.0082-0.1039 0.01072-0.16048 0.015-0.13651 0.0087-0.27212 0.03856-0.39645 0.09577-0.01573 0.0075-0.03806 0.01661-0.05694 0.02731-0.01042 0.0059-0.02092 0.01284-0.03082 0.02136-0.01032 0.0089-0.01972 0.01925-0.02763 0.03155-0.09305 0.09565-0.22065 0.15982-0.31749 0.20136-0.10211 0.04195-0.17939 0.06158-0.23415 0.07197-0.09062 0.01719-0.15561 0.01512-0.18062 0.01398a0.042349 0.042349 90 0 0-0.0038 0.08461z"/>
            </g>
        </g>
        <g transform="matrix(-.65334 .6958 -1.2086 -.46256 118.31 68.086)">
            <path d="m28.894 57.041c-0.02926 0.01935-0.12016 0.07946-0.20168 0.15662-0.03319 0.03141-0.07065 0.07091-0.10558 0.11822-0.01781 0.02412-0.0374 0.05356-0.05587 0.08801-0.0194 0.03649-0.04158 0.09018-0.04718 0.15159-0.0024 0.02586-0.0019 0.05418 0.0039 0.08328 0.0053 0.02689 0.01528 0.05476 0.03175 0.0816 0.01694 0.02719 0.03786 0.05053 0.06221 0.07046 0.02302 0.01884 0.04865 0.03429 0.07598 0.04687 0.05132 0.02362 0.10797 0.03686 0.16319 0.04395 0.1038 0.01174 0.20793 0.0068 0.31337-0.0092 0.10061-0.01527 0.20004-0.04025 0.29896-0.06895 0.38336-0.12299 0.78722-0.25918 1.1717-0.43996 0.22343-0.10752 0.45425-0.23055 0.64512-0.40736 0.05327-0.05051 0.10524-0.10847 0.14562-0.174 0.02034-0.03301 0.03784-0.06808 0.05101-0.10518 0.01327-0.03737 0.02211-0.07665 0.02508-0.11771 0.0053-0.1058-0.02664-0.20556-0.06386-0.28837-0.03042-0.06683-0.0748-0.12485-0.12734-0.17062-0.05541-0.04828-0.11983-0.08296-0.18809-0.10137-0.09317-0.02587-0.18617-0.02768-0.27122-0.01884-0.09318 0.0097-0.18262 0.03291-0.25852 0.05647-0.343 0.11127-0.65839 0.31593-0.81463 0.41798a0.052525 0.052525 90 0 0 0.05745 0.08795c0.1571-0.10261 0.46165-0.29962 0.78896-0.40581 0.0721-0.02237 0.15414-0.04342 0.23762-0.05211 0.07602-0.0079 0.15516-0.0058 0.23261 0.01567 0.05268 0.01421 0.10297 0.04105 0.14682 0.07925 0.04162 0.03626 0.07674 0.08224 0.10063 0.13471 0.03407 0.07579 0.0588 0.15784 0.05473 0.23864-0.0022 0.02967-0.0088 0.0597-0.01922 0.08899-0.01035 0.02915-0.02441 0.05757-0.04145 0.08522-0.03404 0.05523-0.07922 0.10618-0.12803 0.15247-0.17817 0.16504-0.39681 0.2825-0.6184 0.38914-0.37747 0.17747-0.77575 0.31194-1.1573 0.43436-0.09534 0.02764-0.18985 0.05125-0.28404 0.06555-0.09852 0.01495-0.19316 0.01912-0.28502 0.0087-0.04768-0.0061-0.09318-0.01728-0.13185-0.03508-0.02036-0.0094-0.03816-0.02029-0.05336-0.03273-0.01598-0.01308-0.02908-0.02785-0.03941-0.04443-0.0091-0.01487-0.01487-0.03078-0.01806-0.04682-0.0035-0.01752-4e-3 -0.03554-0.0024-0.05326 0.0039-0.04287 0.01988-0.08278 0.03523-0.11165 0.01556-0.02901 0.03228-0.05418 0.04771-0.07509 0.0303-0.04104 0.06326-0.0759 0.09329-0.10433 0.07426-0.07029 0.15832-0.12605 0.18742-0.14529a0.052525 0.052525 90 0 0-0.05795-0.08762z"/>
            <path d="m25.26 59.181c0.0302-0.0058 0.11396-0.02365 0.1995-0.07959 0.02076-0.01357 0.04286-0.0302 0.06463-0.05041 0.02691-0.02499 0.05989-0.06154 0.08684-0.11139 0.03075-0.05464 0.05233-0.12561 0.05141-0.20713-7.4e-4 -0.06537-0.01627-0.13765-0.05321-0.20556-0.0368-0.06971-0.09042-0.13076-0.15651-0.18169-0.06038-0.04653-0.1299-0.08361-0.20338-0.11132-0.09171-0.03443-0.18264-0.05209-0.27463-0.07532-0.20083-0.04653-0.42152-0.08811-0.64621-0.07756-0.06857 0.0038-0.14072 0.01298-0.21107 0.03295-0.0701 0.0199-0.13944 0.05082-0.20122 0.09867-0.05133 0.0391-0.09197 0.08891-0.12192 0.14318-0.0302 0.05471-0.04979 0.11434-0.05937 0.17399-0.01322 0.07871-0.02092 0.16093-0.01787 0.24307 0.0031 0.08445 0.01765 0.16836 0.04869 0.24845 0.02397 0.06317 0.06061 0.11987 0.10495 0.16678 0.04676 0.04947 0.10217 0.0882 0.16206 0.11417 0.07854 0.03479 0.15952 0.05062 0.23458 0.05666 0.08233 0.0066 0.16263 0.0018 0.23159-0.0057 0.07286-0.0083 0.13588-0.02061 0.17517-0.02894a0.077303 0.077303 90 0 0-0.03207-0.15124c-0.03685 0.0078-0.09455 0.01906-0.16024 0.02653-0.06337 0.0069-0.13306 0.01084-0.20204 0.0053-0.06272-5e-3 -0.12575-0.01795-0.18492-0.04416-0.04097-0.01777-0.07915-0.04427-0.11177-0.07878-0.03096-0.03275-0.05635-0.07218-0.07295-0.11594-0.02391-0.06169-0.03592-0.12815-0.03855-0.19884-0.0026-0.06895 0.0038-0.14031 0.01593-0.21225 7e-3 -0.04383 0.02117-0.0863 0.04217-0.12434 0.02078-0.03764 0.0479-0.07026 0.08076-0.09529 0.04332-0.03355 0.09368-0.05677 0.14927-0.07255 0.05603-0.01591 0.11615-0.02391 0.17674-0.02727 0.20188-0.0095 0.40544 0.02791 0.60193 0.07342 0.10086 0.02549 0.17573 0.03942 0.25656 0.06977 0.0612 0.02308 0.11685 0.05317 0.16346 0.08908 0.05074 0.0391 0.08894 0.08363 0.11462 0.13226 0.02416 0.04442 0.03439 0.09151 0.03488 0.13427 5.99e-4 0.05294-0.0134 0.09732-0.03219 0.13072-0.01753 0.03242-0.03858 0.05597-0.05665 0.07275-0.01454 0.0135-0.02958 0.02485-0.04406 0.03432-0.06057 0.03961-0.12111 0.05278-0.14383 0.05711a0.077303 0.077303 90 0 0 0.02896 0.15187z"/>
            <path d="m24.303 58.894c0.03391-0.02456 0.09562-0.06678 0.19418-0.11748 0.0024-0.0012 0.0049-0.0025 0.0074-0.0038 0.04306-0.02135 0.11705-0.05718 0.19279-0.0722 0.01896-0.0038 0.03817-0.0057 0.05541-0.0038 0.0081 8.83e-4 0.01529 0.0025 0.02168 5e-3 0.0062 0.0023 0.01172 0.0054 0.01666 0.0094 0.04616 0.02872 0.09487 0.05481 0.15061 0.06404 6e-3 7.51e-4 0.0092 0.0011 0.01209 0.0014 0.0077 4.5e-4 0.01098 5.81e-4 0.01289 6.58e-4a0.052587 0.052587 90 0 0 0.0042-0.10509c-0.0019-7.7e-5 -0.0052-2.08e-4 -0.0091-3.66e-4 9.41e-4 -3.3e-5 -0.0023-3.97e-4 -0.0056-7.75e-4 -0.03233-0.0054-0.06681-0.02257-0.10468-0.0457-0.0088-0.0077-0.02427-0.01609-0.03998-0.02202-0.01596-6e-3 -0.03202-0.0094-0.04735-0.01109-0.03182-0.0035-0.06264 1.88e-4 -0.08745 0.0052-0.09106 0.01807-0.1766 0.06013-0.21943 0.08137-0.0032 0.0016-0.0057 0.0029-0.0083 0.0042-0.10417 0.05359-0.17043 0.09878-0.20776 0.12582a0.052587 0.052587 90 0 0 0.06169 0.08518z"/>
            <path d="m26.081 57.947c-0.02247 0.01984-0.06556 0.06336-0.09235 0.13424-0.01229 0.03251-0.02194 0.07325-0.02142 0.11922 1.52e-4 0.01351 0.0012 0.02848 0.0037 0.0445 0.0054 0.03939 0.02133 0.08783 0.05529 0.13336 0.02638 0.03537 0.06469 0.06993 0.11534 0.09126 0.04031 0.0177 0.08492 0.026 0.13113 0.02611 0.04201 1.01e-4 0.08433-0.0066 0.12513-0.01778 0.05976-0.01437 0.12711-0.03188 0.19309-0.05531 0.06356-0.02257 0.12844-0.05148 0.18982-0.09127 0.03805-0.02474 0.07571-0.05564 0.10754-0.09314 0.03132-0.03689 0.05754-0.0808 0.07202-0.13164 0.01186-0.0394 0.01509-0.08029 0.01277-0.11941-0.0023-0.03904-0.01014-0.07682-0.02037-0.11168-0.01113-0.03956-0.02509-0.08094-0.04381-0.12079-0.01916-0.04078-0.04333-0.08-0.07482-0.11486-0.02463-0.02782-0.05527-0.05069-0.08875-0.06627-0.03525-0.01641-0.07383-0.02483-0.11297-0.02314-0.04996 0.0018-0.095 0.01638-0.13289 0.0341-0.04134 0.01933-0.07804 0.04429-0.1072 0.06602-0.03297 0.0249-0.05981 0.04905-0.07568 0.06376a0.064184 0.064184 90 0 0 0.08726 0.09415c0.0144-0.01335 0.03769-0.03426 0.06544-0.05522 0.02575-0.01919 0.05451-0.03838 0.08454-0.05242 0.02732-0.01277 0.05523-0.02108 0.08364-0.02212 0.01743-7.53e-4 0.03562 0.0028 0.05369 0.01125 0.01728 8e-3 0.0337 0.02019 0.04723 0.03546 0.02168 0.02402 0.03932 0.05196 0.05432 0.08388 0.01473 0.03136 0.02645 0.06554 0.03663 0.10168 0.0084 0.02872 0.01399 0.05672 0.0156 0.08379 0.0016 0.02698-7.76e-4 0.05233-0.0078 0.07576-0.0088 0.03101-0.02491 0.05899-0.04667 0.08462-0.02223 0.02618-0.04983 0.04921-0.07959 0.06856-0.05057 0.03278-0.10574 0.05768-0.16287 0.07797-0.05952 0.02113-0.12164 0.0374-0.18218 0.05199-0.0337 0.0092-0.06437 0.01377-0.09278 0.0137-0.03098-7.4e-5 -0.05779-0.0056-0.08074-0.01567-0.02706-0.0114-0.04805-0.02985-0.06314-0.05008-0.01934-0.02592-0.02818-0.05325-0.0312-0.07534-0.0017-0.01054-0.0023-0.01924-0.0024-0.0272-3.06e-4 -0.0272 0.0054-0.052 0.01314-0.07239 0.01678-0.04441 0.04375-0.07149 0.05724-0.0834a0.064184 0.064184 90 0 0-0.08497-0.09622z"/>
            <path d="m28.973 57.555c0.02816 0.0013 0.09912 0.0035 0.19697-0.01476 0.05913-0.01103 0.1406-0.03156 0.24729-0.07473 0.1012-0.0427 0.24194-0.11176 0.35378-0.22569 0.0086-0.0115 0.01278-0.01636 0.01776-0.02093 0.0048-0.0044 0.01048-0.0087 0.01708-0.01278 0.01322-0.0083 0.02828-0.01505 0.04726-0.02324 0.11366-0.05298 0.23794-0.08203 0.36558-0.09063 0.05377-0.0043 0.11124-0.0069 0.16742-0.01517 0.05845-0.0086 0.11621-0.02329 0.1704-0.05229 0.06294-0.0333 0.11449-0.07842 0.1573-0.12529 0.04631-0.0507 0.08522-0.10669 0.11705-0.15565 0.02246-0.03499 0.04048-0.06591 0.05047-0.08333a0.042349 0.042349 90 0 0-0.07346-0.04216c-0.0097 0.01685-0.02691 0.04643-0.04816 0.07954-0.03082 0.04742-0.06677 0.09888-0.10843 0.14448-0.03838 0.04202-0.08245 0.08008-0.13455 0.10764-0.04273 0.02286-0.09007 0.03551-0.1429 0.04326-0.05254 0.0077-0.10411 0.0099-0.16138 0.01451-0.13601 0.0092-0.27072 0.04034-0.39401 0.09783-0.01748 0.0075-0.03813 0.01658-0.05751 0.02871-0.01016 0.0064-0.02007 0.01361-0.02936 0.02213-0.0097 0.0088-0.01841 0.01883-0.026 0.03021-0.09487 0.09559-0.22305 0.15939-0.32067 0.20058-0.1006 0.0407-0.17662 0.0597-0.23047 0.06974-0.08911 0.01662-0.15298 0.01454-0.17756 0.01341a0.042349 0.042349 90 0 0-0.0039 0.08461z"/>
        </g>
        <g transform="matrix(-.93024 .21364 -.74575 -1.0576 113.71 100.52)">
            <path d="m28.894 57.041c-0.02926 0.01935-0.12016 0.07946-0.20168 0.15662-0.03319 0.03141-0.07065 0.07091-0.10558 0.11822-0.01781 0.02412-0.0374 0.05356-0.05587 0.08801-0.0194 0.03649-0.04158 0.09018-0.04718 0.15159-0.0024 0.02586-0.0019 0.05418 0.0039 0.08328 0.0053 0.02689 0.01528 0.05476 0.03175 0.0816 0.01694 0.02719 0.03786 0.05053 0.06221 0.07046 0.02302 0.01884 0.04865 0.03429 0.07598 0.04687 0.05132 0.02362 0.10797 0.03686 0.16319 0.04395 0.1038 0.01174 0.20793 0.0068 0.31337-0.0092 0.10061-0.01527 0.20004-0.04025 0.29896-0.06895 0.38336-0.12299 0.78722-0.25918 1.1717-0.43996 0.22343-0.10752 0.45425-0.23055 0.64512-0.40736 0.05327-0.05051 0.10524-0.10847 0.14562-0.174 0.02034-0.03301 0.03784-0.06808 0.05101-0.10518 0.01327-0.03737 0.02211-0.07665 0.02508-0.11771 0.0053-0.1058-0.02664-0.20556-0.06386-0.28837-0.03042-0.06683-0.0748-0.12485-0.12734-0.17062-0.05541-0.04828-0.11983-0.08296-0.18809-0.10137-0.09317-0.02587-0.18617-0.02768-0.27122-0.01884-0.09318 0.0097-0.18262 0.03291-0.25852 0.05647-0.343 0.11127-0.65839 0.31593-0.81463 0.41798a0.052525 0.052525 90 0 0 0.05745 0.08795c0.1571-0.10261 0.46165-0.29962 0.78896-0.40581 0.0721-0.02237 0.15414-0.04342 0.23762-0.05211 0.07602-0.0079 0.15516-0.0058 0.23261 0.01567 0.05268 0.01421 0.10297 0.04105 0.14682 0.07925 0.04162 0.03626 0.07674 0.08224 0.10063 0.13471 0.03407 0.07579 0.0588 0.15784 0.05473 0.23864-0.0022 0.02967-0.0088 0.0597-0.01922 0.08899-0.01035 0.02915-0.02441 0.05757-0.04145 0.08522-0.03404 0.05523-0.07922 0.10618-0.12803 0.15247-0.17817 0.16504-0.39681 0.2825-0.6184 0.38914-0.37747 0.17747-0.77575 0.31194-1.1573 0.43436-0.09534 0.02764-0.18985 0.05125-0.28404 0.06555-0.09852 0.01495-0.19316 0.01912-0.28502 0.0087-0.04768-0.0061-0.09318-0.01728-0.13185-0.03508-0.02036-0.0094-0.03816-0.02029-0.05336-0.03273-0.01598-0.01308-0.02908-0.02785-0.03941-0.04443-0.0091-0.01487-0.01487-0.03078-0.01806-0.04682-0.0035-0.01752-4e-3 -0.03554-0.0024-0.05326 0.0039-0.04287 0.01988-0.08278 0.03523-0.11165 0.01556-0.02901 0.03228-0.05418 0.04771-0.07509 0.0303-0.04104 0.06326-0.0759 0.09329-0.10433 0.07426-0.07029 0.15832-0.12605 0.18742-0.14529a0.052525 0.052525 90 0 0-0.05795-0.08762z"/>
            <path d="m25.261 59.182c0.04725-0.0096 0.14254-0.03412 0.244-0.10197 0.04934-0.03299 0.10423-0.07907 0.15286-0.14142 0.01118-0.01433 0.02268-0.03036 0.03397-0.0481 0.02273-0.03597 0.04986-0.08959 0.06159-0.15411 0.0049-0.02672 0.0073-0.05642 0.0048-0.08774-0.0023-0.02878-0.0087-0.05932-0.02137-0.09-0.01126-0.02754-0.02673-0.05312-0.04569-0.07634-0.01788-0.02189-0.03852-0.04125-0.06108-0.05826-0.04217-0.0318-0.09083-0.05522-0.1401-0.07165-0.06629-0.02219-0.13477-0.03438-0.20469-0.04056-0.06656-0.0059-0.13303-0.0062-0.19896-0.0052-0.09436-0.0023-0.18785-0.01499-0.29523-0.02608-0.10094-0.01043-0.20968-0.01878-0.32063-8e-3 -0.05802 0.0056-0.1188 0.01864-0.17645 0.04255-0.05736 0.02379-0.11237 0.05863-0.15777 0.10796-0.04591 0.04869-0.07806 0.10572-0.10074 0.16375-0.02278 0.05829-0.03645 0.11872-0.04539 0.17542-9e-3 0.04994-0.02204 0.10011-0.03454 0.15576-0.01257 0.05597-0.02381 0.1144-0.02692 0.17555-0.0018 0.03568 0.0016 0.0747 0.01377 0.11196 0.0064 0.01945 0.01523 0.0387 0.02723 0.05674 0.01241 0.01866 0.02791 0.03562 0.04672 0.04988 0.02081 0.01571 0.04248 0.02735 0.06379 0.03607 0.0221 9e-3 0.04413 0.01508 0.06486 0.01924 0.04347 0.0087 0.08725 0.01024 0.11983 0.01082 0.16209-4.71e-4 0.33255-0.03701 0.40881-0.05274a0.07837 0.07837 90 0 0-0.03167-0.15351c-0.07965 0.01643-0.23416 0.04909-0.37598 0.04952-0.02977-5.47e-4 -0.06149-2e-3 -0.09014-0.0078-0.01318-0.0026-0.02533-0.0061-0.03636-0.01063-0.01053-0.0043-0.02004-0.0096-0.02857-0.016-0.0039-0.0029-0.0075-0.0068-0.01078-0.01168-0.0032-0.0049-0.0063-0.01106-0.0088-0.01869-5e-3 -0.01519-0.0072-0.03435-0.0062-0.05529 0.0024-0.04762 0.01133-0.09579 0.02331-0.14912 0.011-0.04897 0.02608-0.10812 0.03615-0.164 0.0081-0.05155 0.0195-0.10012 0.03683-0.14446 0.01714-0.04385 0.03967-0.08239 0.06945-0.11398 0.02802-0.03043 0.06289-0.05332 0.10312-0.07001 0.04065-0.01686 0.08576-0.02694 0.13148-0.03132 0.09459-0.0092 0.19026-0.0024 0.28945 0.0079 0.10112 0.01045 0.20504 0.02435 0.31069 0.02688 0.06731-9.95e-4 0.12739-5.57e-4 0.18581 0.0046 0.06098 0.0054 0.11686 0.0157 0.16882 0.03309 0.03696 0.01233 0.06959 0.02867 0.0954 0.04813 0.01362 0.01028 0.02493 0.0211 0.03407 0.03228 0.0096 0.01178 0.0169 0.02403 0.02211 0.03677 0.0058 0.01414 9e-3 0.0284 0.01009 0.04273 0.0012 0.01573 1.08e-4 0.03171-0.0027 0.04737-7e-3 0.03868-0.02402 0.07332-0.03974 0.0982-0.0082 0.01295-0.01682 0.02491-0.0252 0.03565-0.03655 0.04686-0.07826 0.08202-0.1164 0.10753-0.0784 0.05242-0.15204 0.07132-0.18816 0.07868a0.07837 0.07837 90 0 0 0.03129 0.15358z"/>
            <path d="m24.303 58.894c0.03391-0.02456 0.09562-0.06678 0.19418-0.11748 0.0024-0.0012 0.0049-0.0025 0.0074-0.0038 0.04306-0.02135 0.11705-0.05718 0.19279-0.0722 0.01896-0.0038 0.03817-0.0057 0.05541-0.0038 0.0081 8.83e-4 0.01529 0.0025 0.02168 5e-3 0.0062 0.0023 0.01172 0.0054 0.01666 0.0094 0.04616 0.02872 0.09487 0.05481 0.15061 0.06404 6e-3 7.51e-4 0.0092 0.0011 0.01209 0.0014 0.0077 4.5e-4 0.01098 5.81e-4 0.01289 6.58e-4a0.052587 0.052587 90 0 0 0.0042-0.10509c-0.0019-7.7e-5 -0.0052-2.08e-4 -0.0091-3.66e-4 9.41e-4 -3.3e-5 -0.0023-3.97e-4 -0.0056-7.75e-4 -0.03233-0.0054-0.06681-0.02257-0.10468-0.0457-0.0088-0.0077-0.02427-0.01609-0.03998-0.02202-0.01596-6e-3 -0.03202-0.0094-0.04735-0.01109-0.03182-0.0035-0.06264 1.88e-4 -0.08745 0.0052-0.09106 0.01807-0.1766 0.06013-0.21943 0.08137-0.0032 0.0016-0.0057 0.0029-0.0083 0.0042-0.10417 0.05359-0.17043 0.09878-0.20776 0.12582a0.052587 0.052587 90 0 0 0.06169 0.08518z"/>
            <path d="m26.081 57.947c-0.02247 0.01984-0.06556 0.06336-0.09235 0.13424-0.01229 0.03251-0.02194 0.07325-0.02142 0.11922 1.52e-4 0.01351 0.0012 0.02848 0.0037 0.0445 0.0054 0.03939 0.02133 0.08783 0.05529 0.13336 0.02638 0.03537 0.06469 0.06993 0.11534 0.09126 0.04031 0.0177 0.08492 0.026 0.13113 0.02611 0.04201 1.01e-4 0.08433-0.0066 0.12513-0.01778 0.05976-0.01437 0.12711-0.03188 0.19309-0.05531 0.06356-0.02257 0.12844-0.05148 0.18982-0.09127 0.03805-0.02474 0.07571-0.05564 0.10754-0.09314 0.03132-0.03689 0.05754-0.0808 0.07202-0.13164 0.01186-0.0394 0.01509-0.08029 0.01277-0.11941-0.0023-0.03904-0.01014-0.07682-0.02037-0.11168-0.01113-0.03956-0.02509-0.08094-0.04381-0.12079-0.01916-0.04078-0.04333-0.08-0.07482-0.11486-0.02463-0.02782-0.05527-0.05069-0.08875-0.06627-0.03525-0.01641-0.07383-0.02483-0.11297-0.02314-0.04996 0.0018-0.095 0.01638-0.13289 0.0341-0.04134 0.01933-0.07804 0.04429-0.1072 0.06602-0.03297 0.0249-0.05981 0.04905-0.07568 0.06376a0.064184 0.064184 90 0 0 0.08726 0.09415c0.0144-0.01335 0.03769-0.03426 0.06544-0.05522 0.02575-0.01919 0.05451-0.03838 0.08454-0.05242 0.02732-0.01277 0.05523-0.02108 0.08364-0.02212 0.01743-7.53e-4 0.03562 0.0028 0.05369 0.01125 0.01728 8e-3 0.0337 0.02019 0.04723 0.03546 0.02168 0.02402 0.03932 0.05196 0.05432 0.08388 0.01473 0.03136 0.02645 0.06554 0.03663 0.10168 0.0084 0.02872 0.01399 0.05672 0.0156 0.08379 0.0016 0.02698-7.76e-4 0.05233-0.0078 0.07576-0.0088 0.03101-0.02491 0.05899-0.04667 0.08462-0.02223 0.02618-0.04983 0.04921-0.07959 0.06856-0.05057 0.03278-0.10574 0.05768-0.16287 0.07797-0.05952 0.02113-0.12164 0.0374-0.18218 0.05199-0.0337 0.0092-0.06437 0.01377-0.09278 0.0137-0.03098-7.4e-5 -0.05779-0.0056-0.08074-0.01567-0.02706-0.0114-0.04805-0.02985-0.06314-0.05008-0.01934-0.02592-0.02818-0.05325-0.0312-0.07534-0.0017-0.01054-0.0023-0.01924-0.0024-0.0272-3.06e-4 -0.0272 0.0054-0.052 0.01314-0.07239 0.01678-0.04441 0.04375-0.07149 0.05724-0.0834a0.064184 0.064184 90 0 0-0.08497-0.09622z"/>
            <path d="m28.973 57.555c0.02816 0.0013 0.09912 0.0035 0.19697-0.01476 0.05913-0.01103 0.1406-0.03156 0.24729-0.07473 0.1012-0.0427 0.24194-0.11176 0.35378-0.22569 0.0086-0.0115 0.01278-0.01636 0.01776-0.02093 0.0048-0.0044 0.01048-0.0087 0.01708-0.01278 0.01322-0.0083 0.02828-0.01505 0.04726-0.02324 0.11366-0.05298 0.23794-0.08203 0.36558-0.09063 0.05377-0.0043 0.11124-0.0069 0.16742-0.01517 0.05845-0.0086 0.11621-0.02329 0.1704-0.05229 0.06294-0.0333 0.11449-0.07842 0.1573-0.12529 0.04631-0.0507 0.08522-0.10669 0.11705-0.15565 0.02246-0.03499 0.04048-0.06591 0.05047-0.08333a0.042349 0.042349 90 0 0-0.07346-0.04216c-0.0097 0.01685-0.02691 0.04643-0.04816 0.07954-0.03082 0.04742-0.06677 0.09888-0.10843 0.14448-0.03838 0.04202-0.08245 0.08008-0.13455 0.10764-0.04273 0.02286-0.09007 0.03551-0.1429 0.04326-0.05254 0.0077-0.10411 0.0099-0.16138 0.01451-0.13601 0.0092-0.27072 0.04034-0.39401 0.09783-0.01748 0.0075-0.03813 0.01658-0.05751 0.02871-0.01016 0.0064-0.02007 0.01361-0.02936 0.02213-0.0097 0.0088-0.01841 0.01883-0.026 0.03021-0.09487 0.09559-0.22305 0.15939-0.32067 0.20058-0.1006 0.0407-0.17662 0.0597-0.23047 0.06974-0.08911 0.01662-0.15298 0.01454-0.17756 0.01341a0.042349 0.042349 90 0 0-0.0039 0.08461z"/>
        </g>
        <g>
            <g fill-opacity=".408">
                <path d="m29.038 61.086 1.6536-3.2742 6.0193-3.5057 7.0115-4.7625 1.819-1.1576 1.6109-1.9804 0.9688 0.98818c-5.1112 2.9633-16.859 13.717-19.083 13.692z"/>
                <path d="m43.59 39.158 1.9513-4.7956 0.26458 0.7276-1.4221 3.7042z"/>
                <path d="m41.721 35.266v3.2273l0.42095 1.637-0.51449 0.32741-0.42095-0.98222v-3.3676z"/>
                <path d="m21.398 58.903 2.6128 0.69453 5.9531-2.0836 10.286-6.1185 4.7625-4.068 2.249-2.9435 0.16536 0.66146-1.0914 2.4805-13.56 9.2604-7.1107 2.8443-2.5797 0.33073z"/>
                <path d="m26.929 28.449c2.5766 2.1754 3.2795-0.3332 4.455-1.6604-0.37246 0.91188 0.02653 1.2818-1.789 2.6426-0.94772 0.5584-1.8429 0.3292-2.666-0.98222z"/>
                <path d="m23.971 28.695c1.4896 1.3129 2.2725 0.62795 2.8999-0.24555-0.22139 0.47691-0.1503 1.1292-1.181 1.4616-0.78785 0.0029-1.2302-0.65062-1.7189-1.2161z"/>
                <path d="m22.813 28.952 1.181-0.19878c0.52184 0.412 0.65755 0.95272 1.7656 1.1693 0.74804-0.22283 0.86343-0.80153 1.1459-1.2862 0.70873 0.38979 0.88009 1.188 2.2801 1.0524 1.5693-0.31288 1.8855-2.6282 2.4438-3.5079l-0.18709 1.941c-0.71099 2.0381-3.5789 2.8444-4.4083 0.99391-0.45993 1.3701-1.3858 1.6859-4.2212-0.1637z"/>
                <path d="m31.632 29.177c1.894 4.5879 5.1536 5.2612 4.7357 1.906-2.0674 1.8689-3.8823-0.70616-4.7357-1.906z"/>
            </g>
            <g fill-opacity=".488">
                <path d="m21.497 36.38c0.79563 0.0057 1.5359-0.15472 2.1993-0.5457 0.94661-0.94844 1.2136-2.174 1.2483-3.3395 0.14008 4.9878-0.97155 6.005-3.4476 3.8852z"/>
                <path d="m26.976 34.132 0.73666-0.91206 2.1281-1.2044 0.37418 0.04677c-0.99292 0.46302-1.9681 0.87974-3.239 2.0697z"/>
                <path d="m38.914 30.168c1.783 3.9331 1.6868 6.0701 0.16488 6.8231 0.94493 0.64135 1.3961-0.4489 1.7294-1.7717-0.28088-3.7871-1.1383-4.1147-1.8943-5.0514z"/>
                <path d="m39.159 36.965c0.30667 0.11606-1.3062 3.0795-5.8106 2.885-0.2173 0.57218 0.62404 1.0757-4.116 1.941-2.2887 2.2943-5.6587 0.521-5.8961-0.13229 2.4971 0.88788 4.3585 0.70885 5.7995-0.25153 2.3479-0.22747 3.5193-0.88539 4.0632-1.7729 2.3358-0.22524 4.3705-1.0386 5.96-2.6693z"/>
                <path d="m39.756 31.115 3.1437 0.44565 0.06023 0.139-0.24555 0.23386c-0.87259 0.21615-1.6694 0.10402-2.4789 0.04677z"/>
                <path d="m16.698 39.289 0.81851-0.42095 1.1459-1.0758 0.30402 0.88867 0.02339 0.37418-0.86528 0.04677-0.93544 0.28063z"/>
                <path d="m16.801 45.045 8.5659 0.92604 0.19844 0.7276-8.1359-1.2568z"/>
            </g>
        </g>
        <g fill="#f36385" fill-opacity=".5044" stroke-width=".175">
            <path d="m23.461 27.467c-0.24651-0.64832 0.57463-2.172 2.7409-1.8604-1.8005-1.5417-3.6718 1.1659-2.7409 1.8604z"/>
            <path d="m26.227 25.608c0.87202-1.379 1.8127-2.5375 3.543-1.1576-0.53339-0.56355-1.0645-1.2478-2.0346-1.0056-1.0157 0.67328-1.1392 1.4018-1.5084 2.1632z"/>
            <path d="m23.432 27.508c-0.0045 0.12558-1.0531 0.58323-2.1993 1.1327l-0.27285 0.01654c0.96146-0.89079 1.9254-0.92487 2.4722-1.1493z"/>
            <path d="m29.77 24.438c0.88619-0.56261 1.7562-1.0803 2.0931-0.11693-0.1787-0.71423-0.49285-0.94447-0.79513-0.88867-0.52406 0.19808-0.89033 0.63283-1.2979 1.0056z"/>
            <path d="m19.294 29.618c-0.5082 0.77782-1.5183 1.5991-1.5084 3.9406-0.10931-0.77364-0.47338-0.8965-0.10524-2.3737 0.70487-1.1859 1.1223-1.2997 1.6136-1.5669z"/>
        </g>
        <path d="m58.44 63.037-9.3596-0.09922 0.03307 0.42995 9.062 0.03307z" fill="#f4edd6"/>
        <path d="m58.473 63.368 0.46302 0.62838h-9.7565l-0.03307-0.62838z" fill="#100f22"/>
    </g>
</svg>