<svg id="svg" version="1.1" xmlns="http://www.w3.org/2000/svg" xmlns:xlink="http://www.w3.org/1999/xlink" width="400" height="400" viewBox="0, 0, 400,400"><g id="svgg"><path id="path0" d="M0.000 100.000 L 0.000 200.000 100.000 200.000 L 200.000 200.000 200.000 100.000 L 200.000 0.000 100.000 0.000 L 0.000 0.000 0.000 100.000 M201.600 300.800 L 201.600 400.000 300.800 400.000 L 400.000 400.000 400.000 300.800 L 400.000 201.600 300.800 201.600 L 201.600 201.600 201.600 300.800 " stroke="none" fill="#ff00ff" fill-rule="evenodd"></path><path id="path1" d="M200.000 100.000 L 200.000 200.000 100.000 200.000 L 0.000 200.000 0.000 300.000 L 0.000 400.000 100.800 400.000 L 201.600 400.000 201.600 300.800 L 201.600 201.600 300.800 201.600 L 400.000 201.600 400.000 100.800 L 400.000 0.000 300.000 0.000 L 200.000 0.000 200.000 100.000 " stroke="none" fill="#000000" fill-rule="evenodd"></path></g></svg>
